<svg width="21" height="21" viewBox="0 0 21 21" fill="none" xmlns="http://www.w3.org/2000/svg">
<path d="M13.244 19.366C13.043 19.567 12.8044 19.7265 12.5418 19.8353C12.2792 19.9441 11.9978 20.0001 11.7135 20.0001C11.4292 20.0001 11.1478 19.9441 10.8852 19.8353C10.6226 19.7265 10.384 19.567 10.183 19.366L1.634 10.817C1.22815 10.4112 1.00009 9.86089 1 9.287V3.163C1 1.97 1.97 1 3.164 1H9.287C9.86 1 10.411 1.228 10.817 1.634L19.366 10.183C19.567 10.384 19.7265 10.6226 19.8353 10.8852C19.9441 11.1478 20.0001 11.4292 20.0001 11.7135C20.0001 11.9978 19.9441 12.2792 19.8353 12.5418C19.7265 12.8044 19.567 13.043 19.366 13.244L13.244 19.366Z" stroke="#1976D2" stroke-width="2" stroke-linecap="round" stroke-linejoin="round"/>
</svg>
