<svg width="60" height="60" viewBox="0 0 60 60" fill="none" xmlns="http://www.w3.org/2000/svg">
<path d="M59.3047 29.9694C59.3047 29.2968 58.9741 28.7055 58.4709 28.3346L58.4816 28.3164L51.3953 24.2253L55.4743 17.1604L55.4606 17.152C55.5894 16.8608 55.6478 16.5434 55.6311 16.2254C55.6143 15.9075 55.5228 15.5979 55.3641 15.3219C55.2041 15.0462 54.9814 14.812 54.714 14.6385C54.4466 14.465 54.142 14.357 53.8251 14.3233V14.3035H45.6414V6.1434H45.6247C45.5906 5.82682 45.4824 5.52271 45.3089 5.25573C45.1354 4.98874 44.9015 4.76639 44.626 4.60668C44.3496 4.44744 44.0394 4.35583 43.7209 4.33932C43.4023 4.32281 43.0843 4.38187 42.7929 4.51168L42.783 4.4942L35.5775 8.65444L31.5875 1.743L31.573 1.75136C31.3852 1.49428 31.1394 1.28504 30.8557 1.14059C30.572 0.996144 30.2582 0.920548 29.9398 0.919922C29.2672 0.919922 28.6751 1.25052 28.305 1.75364L28.2868 1.743L24.2307 8.76844L17.2463 4.73588L17.2379 4.75032C16.9467 4.62148 16.6293 4.56308 16.3113 4.57985C15.9934 4.59662 15.6838 4.68809 15.4078 4.84684C15.1319 5.00663 14.8976 5.2293 14.7239 5.49672C14.5503 5.76414 14.4422 6.06877 14.4084 6.38584H14.3879V14.4981H6.32278V14.514C6.0062 14.5481 5.7021 14.6563 5.43511 14.8298C5.16813 15.0033 4.94577 15.2372 4.78607 15.5127C4.62724 15.789 4.5358 16.0988 4.51917 16.417C4.50253 16.7353 4.56116 17.0529 4.69031 17.3443L4.67283 17.3549L8.65979 24.261L1.52035 28.3833L1.52871 28.3977C1.27162 28.5856 1.06238 28.8313 0.917936 29.115C0.773489 29.3988 0.697891 29.7126 0.697266 30.031C0.697266 30.7036 1.02787 31.2956 1.53099 31.6657L1.52035 31.684L8.60659 35.775L4.52767 42.84L4.54134 42.8476C4.41251 43.1388 4.3541 43.4562 4.37087 43.7742C4.38764 44.0921 4.47911 44.4017 4.63787 44.6777C4.79779 44.9534 5.02051 45.1876 5.28791 45.3611C5.55532 45.5346 5.85988 45.6426 6.17687 45.6763V45.6968H14.3598V53.8562H14.3765C14.4464 54.4764 14.7937 55.057 15.3751 55.3929C15.6516 55.552 15.9618 55.6435 16.2803 55.66C16.5989 55.6765 16.9168 55.6175 17.2083 55.4879L17.2181 55.5054L24.4237 51.3452L28.4137 58.2566L28.4281 58.2482C28.616 58.5053 28.8617 58.7146 29.1455 58.859C29.4292 59.0035 29.743 59.0791 30.0614 59.0797C30.734 59.0797 31.326 58.7491 31.6961 58.2467L31.7136 58.2566L35.7697 51.2312L42.7549 55.2637L42.7633 55.2493C43.0544 55.3781 43.3719 55.4365 43.6898 55.4197C44.0078 55.403 44.3173 55.3115 44.5933 55.1528C44.8693 54.993 45.1036 54.7703 45.2773 54.5029C45.4509 54.2355 45.559 53.9308 45.5927 53.6138H45.6133V45.5023H53.6791V45.4863C53.9957 45.4523 54.2998 45.3441 54.5668 45.1706C54.8338 44.9971 55.0562 44.7631 55.2159 44.4877C55.3746 44.2112 55.466 43.9013 55.4827 43.5829C55.4993 43.2646 55.4407 42.9468 55.3116 42.6553L55.3291 42.6454L51.3421 35.7393L58.4816 31.6171L58.4732 31.6026C58.7304 31.4149 58.9397 31.1692 59.0842 30.8854C59.2286 30.6016 59.3042 30.2878 59.3047 29.9694ZM25.224 38.6296L17.741 35.3236L21.0432 41.0426L19.1767 42.1203L14.1135 33.3522L16.0325 32.2433L23.2753 35.4064L20.0947 29.898L21.9621 28.8203L27.0237 37.5884L25.224 38.6296ZM28.7595 36.5882L23.6971 27.8194L29.9025 24.2375L30.851 25.8806L26.5122 28.3848L27.5747 30.2255L31.8208 27.7745L32.7693 29.4161L28.5231 31.8686L29.6768 33.8667L34.0157 31.3625L34.9641 33.0056L28.7595 36.5882ZM43.1281 28.2928L38.1136 23.1598L40.0645 30.0606L38.0801 31.2067L30.5067 23.8886L32.5967 22.6818L37.7936 28.1294L35.8047 20.8296L37.2639 19.9876L42.5786 25.3676L40.4582 18.143L42.5482 16.9362L45.1132 27.1475L43.1281 28.2928Z" fill="#FF0000"/>
</svg>
