<svg width="31" height="31" viewBox="0 0 31 31" fill="none" xmlns="http://www.w3.org/2000/svg">
<path d="M23.2146 4.03757L23.1125 9.56462C23.0979 10.323 23.5793 11.3292 24.1918 11.7813L27.8084 14.5229C30.1271 16.2729 29.748 18.4167 26.9771 19.2917L22.2667 20.7646C21.4792 21.0125 20.648 21.873 20.4438 22.6751L19.3209 26.9625C18.4313 30.3459 16.2146 30.6813 14.3771 27.7063L11.8104 23.55C11.3438 22.7917 10.2354 22.223 9.36045 22.2667L4.48966 22.5146C1.00425 22.6896 0.0125649 20.6772 2.28756 18.023L5.17504 14.6688C5.71462 14.0417 5.96253 12.8751 5.71461 12.0876L4.24177 7.37712C3.38135 4.60629 4.92717 3.07506 7.68342 3.97923L11.9855 5.39381C12.7147 5.62715 13.8084 5.46671 14.4209 5.01463L18.9126 1.77713C21.3334 0.0271289 23.2729 1.04799 23.2146 4.03757Z" stroke="#1976D2" stroke-width="1.5" stroke-linecap="round" stroke-linejoin="round"/>
</svg>
