<svg width="30" height="30" viewBox="0 0 30 30" fill="none" xmlns="http://www.w3.org/2000/svg">
<path d="M10 2.5V6.25" stroke="#1976D2" stroke-width="2" stroke-miterlimit="10" stroke-linecap="round" stroke-linejoin="round"/>
<path d="M20 2.5V6.25" stroke="#1976D2" stroke-width="2" stroke-miterlimit="10" stroke-linecap="round" stroke-linejoin="round"/>
<path d="M20 4.375C24.1625 4.6 26.25 6.1875 26.25 12.0625V19.7875C26.25 24.9375 25 27.5125 18.75 27.5125H11.25C5 27.5125 3.75 24.9375 3.75 19.7875V12.0625C3.75 6.1875 5.8375 4.6125 10 4.375H20Z" stroke="#1976D2" stroke-width="2" stroke-miterlimit="10" stroke-linecap="round" stroke-linejoin="round"/>
<path d="M25.9375 22H4.0625" stroke="#1976D2" stroke-width="2" stroke-miterlimit="10" stroke-linecap="round" stroke-linejoin="round"/>
<path d="M15 10.3125C13.4625 10.3125 12.1625 11.15 12.1625 12.775C12.1625 13.55 12.525 14.1375 13.075 14.5125C12.3125 14.9625 11.875 15.6875 11.875 16.5375C11.875 18.0875 13.0625 19.05 15 19.05C16.925 19.05 18.125 18.0875 18.125 16.5375C18.125 15.6875 17.6875 14.95 16.9125 14.5125C17.475 14.125 17.825 13.55 17.825 12.775C17.825 11.15 16.5375 10.3125 15 10.3125ZM15 13.8625C14.35 13.8625 13.875 13.475 13.875 12.8625C13.875 12.2375 14.35 11.875 15 11.875C15.65 11.875 16.125 12.2375 16.125 12.8625C16.125 13.475 15.65 13.8625 15 13.8625ZM15 17.5C14.175 17.5 13.575 17.0875 13.575 16.3375C13.575 15.5875 14.175 15.1875 15 15.1875C15.825 15.1875 16.425 15.6 16.425 16.3375C16.425 17.0875 15.825 17.5 15 17.5Z" fill="#1976D2"/>
</svg>
