<svg width="27" height="27" viewBox="0 0 27 27" fill="none" xmlns="http://www.w3.org/2000/svg">
<path d="M13.7522 0.749146C6.70494 0.749146 0.992188 6.49076 0.992188 13.5736C0.992188 20.6564 6.70494 26.398 13.7522 26.398C20.7994 26.398 26.5122 20.6564 26.5122 13.5736C26.5122 6.49076 20.7994 0.749146 13.7522 0.749146ZM10.6286 18.8891H8.04474V10.5318H10.6286V18.8891ZM9.32074 9.50584C8.50463 9.50584 7.97695 8.92473 7.97695 8.20603C7.97695 7.47263 8.52058 6.90889 9.35397 6.90889C10.1874 6.90889 10.6978 7.47263 10.7137 8.20603C10.7137 8.92473 10.1874 9.50584 9.32074 9.50584ZM20.0657 18.8891H17.4818V14.2576C17.4818 13.1795 17.107 12.4474 16.1726 12.4474C15.4588 12.4474 15.0348 12.9431 14.8474 13.42C14.7783 13.5896 14.761 13.8301 14.761 14.0692V18.8877H12.1758V13.1969C12.1758 12.1536 12.1426 11.2812 12.108 10.5305H14.353L14.4713 11.6913H14.5231C14.8634 11.1463 15.6967 10.3421 17.091 10.3421C18.791 10.3421 20.0657 11.4869 20.0657 13.9476V18.8891Z" fill="#0077B5"/>
</svg>
