<svg width="20" height="20" viewBox="0 0 20 20" fill="none" xmlns="http://www.w3.org/2000/svg">
<path d="M18.3096 15.275C18.3096 15.575 18.243 15.8833 18.1013 16.1833C17.9596 16.4833 17.7763 16.7666 17.5346 17.0333C17.1263 17.4833 16.6763 17.8083 16.168 18.0166C15.668 18.225 15.1263 18.3333 14.543 18.3333C13.693 18.3333 12.7846 18.1333 11.8263 17.725C10.868 17.3166 9.90964 16.7666 8.95964 16.075C8.0013 15.375 7.09297 14.6 6.2263 13.7416C5.36797 12.875 4.59297 11.9666 3.9013 11.0166C3.21797 10.0666 2.66797 9.11663 2.26797 8.17496C1.86797 7.22496 1.66797 6.31663 1.66797 5.44996C1.66797 4.88329 1.76797 4.34163 1.96797 3.84163C2.16797 3.33329 2.48464 2.86663 2.9263 2.44996C3.45964 1.92496 4.04297 1.66663 4.65964 1.66663C4.89297 1.66663 5.1263 1.71663 5.33464 1.81663C5.5513 1.91663 5.74297 2.06663 5.89297 2.28329L7.8263 5.00829C7.9763 5.21663 8.08464 5.40829 8.15964 5.59163C8.23464 5.76663 8.2763 5.94163 8.2763 6.09996C8.2763 6.29996 8.21797 6.49996 8.1013 6.69163C7.99297 6.88329 7.83464 7.08329 7.63464 7.28329L7.0013 7.94163C6.90964 8.03329 6.86797 8.14163 6.86797 8.27496C6.86797 8.34163 6.8763 8.39996 6.89297 8.46663C6.91797 8.53329 6.94297 8.58329 6.95964 8.63329C7.10964 8.90829 7.36797 9.26663 7.73464 9.69996C8.10964 10.1333 8.50964 10.575 8.94297 11.0166C9.39297 11.4583 9.8263 11.8666 10.268 12.2416C10.7013 12.6083 11.0596 12.8583 11.343 13.0083C11.3846 13.025 11.4346 13.05 11.493 13.075C11.5596 13.1 11.6263 13.1083 11.7013 13.1083C11.843 13.1083 11.9513 13.0583 12.043 12.9666L12.6763 12.3416C12.8846 12.1333 13.0846 11.975 13.2763 11.875C13.468 11.7583 13.6596 11.7 13.868 11.7C14.0263 11.7 14.193 11.7333 14.3763 11.8083C14.5596 11.8833 14.7513 11.9916 14.9596 12.1333L17.718 14.0916C17.9346 14.2416 18.0846 14.4166 18.1763 14.625C18.2596 14.8333 18.3096 15.0416 18.3096 15.275Z" stroke="#1976D2" stroke-width="1.5" stroke-miterlimit="10"/>
</svg>
