<svg width="31" height="32" viewBox="0 0 31 32" fill="none" xmlns="http://www.w3.org/2000/svg">
<path d="M23.2127 4.86593L23.1106 10.4209C23.096 11.1831 23.5773 12.1944 24.1898 12.6488L27.8064 15.4043C30.1252 17.1631 29.746 19.3177 26.9752 20.1971L22.2648 21.6774C21.4773 21.9266 20.646 22.7914 20.4419 23.5976L19.3189 27.9067C18.4294 31.3071 16.2127 31.6442 14.3752 28.6542L11.8085 24.4769C11.3418 23.7148 10.2335 23.1432 9.35849 23.1872L4.48771 23.4363C1.00229 23.6122 0.0106118 21.5895 2.28561 18.922L5.17308 15.5508C5.71267 14.9206 5.96058 13.748 5.71266 12.9566L4.23982 8.22235C3.3794 5.43752 4.92521 3.89856 7.68146 4.80729L11.9836 6.22902C12.7127 6.46353 13.8065 6.30229 14.419 5.84793L18.9106 2.59407C21.3315 0.835237 23.271 1.86125 23.2127 4.86593Z" stroke="#1976D2" stroke-width="1.5" stroke-linecap="round" stroke-linejoin="round"/>
</svg>
