<svg width="22" height="30" viewBox="0 0 22 30" fill="none" xmlns="http://www.w3.org/2000/svg">
<path d="M11 15C12.3845 15 13.7378 14.5601 14.889 13.736C16.0401 12.9119 16.9373 11.7406 17.4672 10.3701C17.997 8.99968 18.1356 7.49168 17.8655 6.03683C17.5954 4.58197 16.9287 3.2456 15.9497 2.1967C14.9708 1.14781 13.7235 0.433503 12.3656 0.144114C11.0078 -0.145275 9.6003 0.00324964 8.32122 0.570907C7.04213 1.13856 5.94888 2.09986 5.17971 3.33323C4.41054 4.56659 4 6.01664 4 7.5C4.00185 9.48852 4.73995 11.395 6.0523 12.8011C7.36465 14.2072 9.14405 14.998 11 15ZM11 2.5C11.923 2.5 12.8252 2.79325 13.5927 3.34265C14.3601 3.89206 14.9582 4.67296 15.3114 5.58659C15.6646 6.50022 15.7571 7.50555 15.577 8.47545C15.3969 9.44536 14.9525 10.3363 14.2998 11.0355C13.6472 11.7348 12.8157 12.211 11.9104 12.4039C11.0052 12.5969 10.0669 12.4978 9.21414 12.1194C8.36142 11.741 7.63259 11.1001 7.11981 10.2779C6.60703 9.45561 6.33333 8.48891 6.33333 7.5C6.33333 6.17392 6.825 4.90215 7.70017 3.96447C8.57534 3.02679 9.76232 2.5 11 2.5Z" fill="#1976D2"/>
<path d="M11 17C8.08361 17.0034 5.2876 18.2372 3.2254 20.4307C1.1632 22.6241 0.00323504 25.598 0 28.7C0 29.0448 0.128769 29.3754 0.357981 29.6192C0.587192 29.863 0.898069 30 1.22222 30C1.54638 30 1.85725 29.863 2.08646 29.6192C2.31567 29.3754 2.44444 29.0448 2.44444 28.7C2.44444 26.2865 3.34583 23.9719 4.95031 22.2653C6.55479 20.5587 8.73093 19.6 11 19.6C13.2691 19.6 15.4452 20.5587 17.0497 22.2653C18.6542 23.9719 19.5556 26.2865 19.5556 28.7C19.5556 29.0448 19.6843 29.3754 19.9135 29.6192C20.1427 29.863 20.4536 30 20.7778 30C21.1019 30 21.4128 29.863 21.642 29.6192C21.8712 29.3754 22 29.0448 22 28.7C21.9968 25.598 20.8368 22.6241 18.7746 20.4307C16.7124 18.2372 13.9164 17.0034 11 17Z" fill="#1976D2"/>
</svg>
