<svg width="18" height="18" viewBox="0 0 18 18" fill="none" xmlns="http://www.w3.org/2000/svg">
<path d="M1.5 16.5H16.5" stroke="white" stroke-linecap="round" stroke-linejoin="round"/>
<path d="M2.33203 16.5V9.75C2.33203 8.505 3.44953 7.5 4.82953 7.5H13.162C14.542 7.5 15.6595 8.505 15.6595 9.75V16.5" stroke="white" stroke-linecap="round" stroke-linejoin="round"/>
<path d="M4.16992 7.5V5.3775C4.16992 4.4775 4.97992 3.75 5.98492 3.75H12.0224C13.0199 3.75 13.8299 4.4775 13.8299 5.3775V7.5" stroke="white" stroke-linecap="round" stroke-linejoin="round"/>
<path d="M2.64844 10.485L2.92594 10.4925C3.48094 10.5 3.92344 10.95 3.92344 11.505V11.7525C3.92344 12.3075 4.37344 12.765 4.93594 12.765C5.49094 12.765 5.94844 12.315 5.94844 11.7525V11.52C5.94844 10.965 6.39844 10.5075 6.96094 10.5075C7.51594 10.5075 7.97344 10.9575 7.97344 11.52V11.7525C7.97344 12.3075 8.42344 12.765 8.98594 12.765C9.54094 12.765 9.99844 12.315 9.99844 11.7525V11.52C9.99844 10.965 10.4484 10.5075 11.0109 10.5075C11.5659 10.5075 12.0234 10.9575 12.0234 11.52V11.7525C12.0234 12.3075 12.4734 12.765 13.0359 12.765C13.5909 12.765 14.0484 12.315 14.0484 11.7525V11.52C14.0484 10.965 14.4984 10.5075 15.0609 10.5075H15.3984" stroke="white" stroke-linecap="round" stroke-linejoin="round"/>
<path d="M6 3.75V2.25" stroke="white" stroke-linecap="round" stroke-linejoin="round"/>
<path d="M12 3.75V2.25" stroke="white" stroke-linecap="round" stroke-linejoin="round"/>
<path d="M9 3.75V1.5" stroke="white" stroke-linecap="round" stroke-linejoin="round"/>
</svg>
