<svg width="21" height="21" viewBox="0 0 21 21" fill="none" xmlns="http://www.w3.org/2000/svg">
<path d="M10.5 19.25C15.3325 19.25 19.25 15.3325 19.25 10.5C19.25 5.66751 15.3325 1.75 10.5 1.75C5.66751 1.75 1.75 5.66751 1.75 10.5C1.75 15.3325 5.66751 19.25 10.5 19.25Z" stroke="#1976D2" stroke-miterlimit="10" stroke-linecap="round" stroke-linejoin="round"/>
<path d="M8.65234 5.1012V6.8512" stroke="#1976D2" stroke-miterlimit="10" stroke-linecap="round" stroke-linejoin="round"/>
<path d="M12.3477 5.1012V6.8512" stroke="#1976D2" stroke-miterlimit="10" stroke-linecap="round" stroke-linejoin="round"/>
<path d="M6.58984 8.87244H14.4123" stroke="#1976D2" stroke-miterlimit="10" stroke-linecap="round" stroke-linejoin="round"/>
<path d="M11.8125 15.4612H9.1875C7 15.4612 5.6875 13.8862 5.6875 11.9612V9.33618C5.6875 7.41118 7 5.83618 9.1875 5.83618H11.8125C14 5.83618 15.3125 7.41118 15.3125 9.33618V11.9612C15.3125 13.8862 14 15.4612 11.8125 15.4612Z" stroke="#1976D2" stroke-miterlimit="10" stroke-linecap="round" stroke-linejoin="round"/>
</svg>
