<svg width="19" height="19" viewBox="0 0 19 19" fill="none" xmlns="http://www.w3.org/2000/svg">
<path d="M14.7484 5.66041C14.7801 6.14332 14.7405 6.68957 14.6455 7.29916L14.0676 11.0121C13.5768 14.1075 12.1438 15.1525 9.04842 14.6696L5.3355 14.0837C4.26675 13.9175 3.44342 13.6325 2.84175 13.205C1.69383 12.4054 1.36133 11.0912 1.678 9.06457L2.26383 5.35166C2.75467 2.25624 4.18758 1.21124 7.283 1.69416L10.9959 2.27999C13.4818 2.66791 14.6455 3.68124 14.7484 5.66041Z" stroke="#1976D2" stroke-linecap="round" stroke-linejoin="round"/>
<path d="M16.2289 10.6637L15.0414 14.2341C14.0518 17.2108 12.4685 18.0025 9.4918 17.0129L5.92138 15.8254C4.1243 15.2316 3.1268 14.4083 2.8418 13.205C3.44346 13.6325 4.2668 13.9175 5.33555 14.0837L9.04846 14.6696C12.1439 15.1525 13.5768 14.1075 14.0676 11.0121L14.6455 7.29915C14.7405 6.68957 14.7801 6.14332 14.7485 5.6604C16.6405 6.66582 17.0522 8.18582 16.2289 10.6637Z" stroke="#1976D2" stroke-linecap="round" stroke-linejoin="round"/>
<path d="M6.52398 7.10913C7.28476 7.10913 7.90148 6.4924 7.90148 5.73163C7.90148 4.97085 7.28476 4.35413 6.52398 4.35413C5.76321 4.35413 5.14648 4.97085 5.14648 5.73163C5.14648 6.4924 5.76321 7.10913 6.52398 7.10913Z" stroke="#1976D2" stroke-linecap="round" stroke-linejoin="round"/>
</svg>
