<svg width="19" height="19" viewBox="0 0 19 19" fill="none" xmlns="http://www.w3.org/2000/svg">
<path d="M14.7504 5.66041C14.782 6.14332 14.7425 6.68957 14.6475 7.29916L14.0695 11.0121C13.5787 14.1075 12.1458 15.1525 9.05037 14.6696L5.33745 14.0837C4.2687 13.9175 3.44537 13.6325 2.8437 13.205C1.69579 12.4054 1.36329 11.0912 1.67995 9.06457L2.26579 5.35166C2.75662 2.25624 4.18954 1.21124 7.28495 1.69416L10.9979 2.27999C13.4837 2.66791 14.6475 3.68124 14.7504 5.66041Z" stroke="white" stroke-linecap="round" stroke-linejoin="round"/>
<path d="M16.2308 10.6637L15.0433 14.2341C14.0538 17.2108 12.4704 18.0025 9.49375 17.0129L5.92333 15.8254C4.12625 15.2316 3.12875 14.4083 2.84375 13.205C3.44542 13.6325 4.26875 13.9175 5.3375 14.0837L9.05042 14.6696C12.1458 15.1525 13.5788 14.1075 14.0696 11.0121L14.6475 7.29915C14.7425 6.68957 14.7821 6.14332 14.7504 5.6604C16.6425 6.66582 17.0542 8.18582 16.2308 10.6637Z" stroke="white" stroke-linecap="round" stroke-linejoin="round"/>
<path d="M6.52203 7.10913C7.2828 7.10913 7.89953 6.4924 7.89953 5.73163C7.89953 4.97085 7.2828 4.35413 6.52203 4.35413C5.76126 4.35413 5.14453 4.97085 5.14453 5.73163C5.14453 6.4924 5.76126 7.10913 6.52203 7.10913Z" stroke="white" stroke-linecap="round" stroke-linejoin="round"/>
</svg>
