<svg width="25" height="25" viewBox="0 0 25 25" fill="none" xmlns="http://www.w3.org/2000/svg">
<path d="M0.417969 12.5757C0.418649 15.4676 1.44562 18.2645 3.3143 20.4636C5.18297 22.6627 7.77081 24.1198 10.6127 24.5731V16.0854H7.54714V12.5757H10.6163V9.9039C10.5485 9.27858 10.6186 8.64593 10.8215 8.05088C11.0244 7.45583 11.3552 6.91298 11.7904 6.4609C12.2255 6.00881 12.7544 5.65857 13.3394 5.43505C13.9244 5.21154 14.5513 5.12022 15.1753 5.16761C16.0816 5.18218 16.9878 5.26355 17.882 5.41049V8.39679H16.3547C16.0951 8.36262 15.8312 8.38751 15.5825 8.46963C15.3337 8.55175 15.1065 8.689 14.9177 8.87123C14.7288 9.05346 14.5831 9.27601 14.4914 9.52244C14.3996 9.76887 14.3641 10.0329 14.3875 10.295V12.5757H17.7358L17.2005 16.0866H14.3875V24.5731C16.6684 24.2108 18.7982 23.1992 20.5248 21.6581C22.2514 20.1171 23.5025 18.111 24.13 15.8775C24.7575 13.644 24.735 11.2765 24.0653 9.05542C23.3956 6.83433 22.1066 4.85262 20.3511 3.34491C18.5955 1.83721 16.4469 0.866645 14.1596 0.548141C11.8722 0.229636 9.542 0.576527 7.44473 1.54774C5.34747 2.51896 3.57101 4.07382 2.32569 6.02825C1.08037 7.98268 0.418335 10.2548 0.417969 12.5757Z" fill="#3B5998"/>
</svg>
