<svg width="19" height="20" viewBox="0 0 19 20" fill="none" xmlns="http://www.w3.org/2000/svg">
<path d="M2.86406 7.53375C4.42364 0.64328 14.5807 0.651237 16.1324 7.5417C17.0428 11.5837 14.5411 15.005 12.3482 17.1215C10.757 18.6651 8.23947 18.6651 6.64031 17.1215C4.45531 15.005 1.95364 11.5757 2.86406 7.53375Z" stroke="#1976D2"/>
<path fill-rule="evenodd" clip-rule="evenodd" d="M12.4228 6.55709C12.199 6.33211 11.836 6.33211 11.6122 6.55709L9.58594 8.59358L7.55968 6.55709C7.33584 6.33212 6.97291 6.33212 6.74906 6.55709C6.52521 6.78207 6.52521 7.14683 6.74906 7.37181L8.77531 9.4083L6.74845 11.4454C6.52461 11.6704 6.52461 12.0351 6.74846 12.2601C6.9723 12.4851 7.33523 12.4851 7.55908 12.2601L9.58594 10.223L11.6128 12.2601C11.8366 12.4851 12.1996 12.4851 12.4234 12.2601C12.6473 12.0351 12.6473 11.6704 12.4234 11.4454L10.3966 9.4083L12.4228 7.37181C12.6467 7.14683 12.6467 6.78207 12.4228 6.55709Z" fill="#FF0000"/>
</svg>
