<svg width="31" height="33" viewBox="0 0 31 33" fill="none" xmlns="http://www.w3.org/2000/svg">
<path d="M25.6184 10.4844C24.8226 10.4843 24.0375 10.3011 23.3238 9.94906C22.6101 9.59701 21.987 9.08551 21.5026 8.45413L10.2969 14.814C10.6735 15.9065 10.6735 17.0936 10.2969 18.186L21.5026 24.5459C22.2848 23.5311 23.4146 22.8414 24.6748 22.6096C25.9349 22.3777 27.2362 22.6201 28.3284 23.29C29.4205 23.96 30.2263 25.0102 30.5907 26.2385C30.9551 27.4669 30.8524 28.7866 30.3022 29.9438C29.7521 31.1009 28.7934 32.0137 27.6108 32.5065C26.4281 32.9993 25.1049 33.0374 23.8958 32.6133C22.6868 32.1892 21.6773 31.3329 21.0617 30.2092C20.446 29.0856 20.2676 27.774 20.5609 26.5267L9.1643 20.0584C8.45115 20.817 7.5265 21.3439 6.51028 21.5707C5.49405 21.7974 4.43314 21.7136 3.46514 21.33C2.49715 20.9465 1.66673 20.2809 1.08159 19.4197C0.496451 18.5584 0.183594 17.5412 0.183594 16.5C0.183594 15.4588 0.496451 14.4416 1.08159 13.5804C1.66673 12.7191 2.49715 12.0536 3.46514 11.67C4.43314 11.2865 5.49405 11.2027 6.51028 11.4294C7.5265 11.6561 8.45115 12.183 9.1643 12.9417L20.561 6.47328C20.3153 5.4233 20.4024 4.32289 20.8103 3.32467C21.2183 2.32646 21.9267 1.47993 22.8374 0.902512C23.7481 0.325089 24.816 0.0453987 25.8928 0.102238C26.9697 0.159073 28.0021 0.549618 28.847 1.2197C29.6919 1.88978 30.3073 2.80619 30.6079 3.84179C30.9084 4.8774 30.8793 5.98088 30.5244 6.99916C30.1695 8.01744 29.5066 8.90005 28.6275 9.52457C27.7484 10.1491 26.6967 10.4845 25.6184 10.4844ZM25.6184 30.7188C26.2133 30.7188 26.7948 30.5424 27.2895 30.2119C27.7841 29.8814 28.1696 29.4116 28.3973 28.862C28.6249 28.3124 28.6845 27.7076 28.5684 27.1242C28.4524 26.5407 28.1659 26.0048 27.7452 25.5841C27.3246 25.1635 26.7887 24.877 26.2052 24.7609C25.6217 24.6449 25.017 24.7044 24.4674 24.9321C23.9178 25.1598 23.448 25.5453 23.1175 26.0399C22.787 26.5345 22.6106 27.1161 22.6106 27.711C22.6115 28.5084 22.9287 29.2729 23.4925 29.8368C24.0564 30.4007 24.821 30.7179 25.6184 30.7188ZM5.38403 13.4922C4.78914 13.4922 4.20761 13.6686 3.71298 13.9991C3.21834 14.3296 2.83282 14.7994 2.60517 15.349C2.37752 15.8986 2.31795 16.5034 2.43401 17.0868C2.55007 17.6703 2.83653 18.2062 3.25718 18.6269C3.67783 19.0475 4.21377 19.334 4.79723 19.45C5.38069 19.5661 5.98546 19.5065 6.53507 19.2789C7.08467 19.0512 7.55443 18.6657 7.88493 18.1711C8.21543 17.6764 8.39184 17.0949 8.39184 16.5C8.39095 15.7026 8.07377 14.938 7.50989 14.3742C6.94601 13.8103 6.18148 13.4931 5.38403 13.4922ZM25.6184 2.28128C25.0235 2.28128 24.442 2.45769 23.9473 2.78819C23.4527 3.11869 23.0672 3.58845 22.8395 4.13806C22.6119 4.68766 22.5523 5.29243 22.6684 5.87589C22.7844 6.45935 23.0709 6.99529 23.4916 7.41594C23.9122 7.83659 24.4481 8.12305 25.0316 8.23911C25.6151 8.35517 26.2198 8.2956 26.7694 8.06795C27.319 7.8403 27.7888 7.45478 28.1193 6.96015C28.4498 6.46551 28.6262 5.88398 28.6262 5.28909C28.6253 4.49165 28.3081 3.72711 27.7443 3.16323C27.1804 2.59935 26.4158 2.28217 25.6184 2.28128Z" fill="#666666"/>
</svg>
