<svg width="19" height="19" viewBox="0 0 19 19" fill="none" xmlns="http://www.w3.org/2000/svg">
<path d="M6.86719 11.3444C6.86719 12.3657 7.65094 13.189 8.62469 13.189H10.6118C11.4589 13.189 12.1476 12.4686 12.1476 11.5819C12.1476 10.6161 11.728 10.2757 11.1026 10.054L7.91219 8.94567C7.28677 8.724 6.86719 8.38359 6.86719 7.41775C6.86719 6.53109 7.55594 5.81067 8.40302 5.81067H10.3901C11.3639 5.81067 12.1476 6.634 12.1476 7.65525" stroke="white" stroke-linecap="round" stroke-linejoin="round"/>
<path d="M9.5 4.75V14.25" stroke="white" stroke-linecap="round" stroke-linejoin="round"/>
<path d="M9.4987 17.4167C13.871 17.4167 17.4154 13.8723 17.4154 9.50004C17.4154 5.12779 13.871 1.58337 9.4987 1.58337C5.12644 1.58337 1.58203 5.12779 1.58203 9.50004C1.58203 13.8723 5.12644 17.4167 9.4987 17.4167Z" stroke="white" stroke-linecap="round" stroke-linejoin="round"/>
</svg>
