<svg width="21" height="21" viewBox="0 0 21 21" fill="none" xmlns="http://www.w3.org/2000/svg">
<path d="M9.17936 1.95124L4.81312 3.58749C3.80687 3.96374 2.98438 5.15374 2.98438 6.22999V12.7312C2.98438 13.7637 3.66688 15.12 4.49813 15.7412L8.26062 18.55C9.49437 19.4775 11.5244 19.4775 12.7581 18.55L16.5206 15.7412C17.3519 15.12 18.0344 13.7637 18.0344 12.7312V6.22999C18.0344 5.15374 17.2119 3.96374 16.2056 3.58749L11.8394 1.95124C11.0956 1.67999 9.90561 1.67999 9.17936 1.95124Z" stroke="#1976D2" stroke-linecap="round" stroke-linejoin="round"/>
<path d="M10.5 13.5625C12.433 13.5625 14 11.9955 14 10.0625C14 8.1295 12.433 6.5625 10.5 6.5625C8.567 6.5625 7 8.1295 7 10.0625C7 11.9955 8.567 13.5625 10.5 13.5625Z" stroke="#1976D2" stroke-miterlimit="10" stroke-linecap="round" stroke-linejoin="round"/>
<path d="M10.7188 8.96875V9.7825C10.7188 10.0888 10.5613 10.3775 10.29 10.535L9.625 10.9375" stroke="#1976D2" stroke-miterlimit="10" stroke-linecap="round" stroke-linejoin="round"/>
</svg>
