<svg width="22" height="22" viewBox="0 0 22 22" fill="none" xmlns="http://www.w3.org/2000/svg">
<path d="M8.83464 16.4167L3.41797 11L4.94547 9.46169L8.83464 13.3509L17.0571 5.12835L18.5846 6.66669L8.83464 16.4167ZM11.0013 0.166687C9.57865 0.166687 8.16993 0.4469 6.85556 0.991325C5.5412 1.53575 4.34695 2.33373 3.34098 3.3397C1.30933 5.37134 0.167969 8.12684 0.167969 11C0.167969 13.8732 1.30933 16.6287 3.34098 18.6603C4.34695 19.6663 5.5412 20.4643 6.85556 21.0087C8.16993 21.5531 9.57865 21.8334 11.0013 21.8334C13.8745 21.8334 16.63 20.692 18.6616 18.6603C20.6933 16.6287 21.8346 13.8732 21.8346 11C21.8346 9.57737 21.5544 8.16864 21.01 6.85428C20.4656 5.53992 19.6676 4.34566 18.6616 3.3397C17.6557 2.33373 16.4614 1.53575 15.147 0.991325C13.8327 0.4469 12.424 0.166687 11.0013 0.166687Z" fill="#1976D2" fill-opacity="0.55"/>
</svg>
