<svg width="31" height="31" viewBox="0 0 31 31" fill="none" xmlns="http://www.w3.org/2000/svg">
<path d="M23.2146 4.03745L23.1125 9.5645C23.0979 10.3228 23.5793 11.3291 24.1918 11.7812L27.8084 14.5228C30.1271 16.2728 29.748 18.4166 26.9771 19.2916L22.2667 20.7645C21.4792 21.0124 20.648 21.8729 20.4438 22.6749L19.3209 26.9624C18.4313 30.3457 16.2146 30.6812 14.3771 27.7062L11.8104 23.5499C11.3438 22.7916 10.2354 22.2229 9.36045 22.2666L4.48966 22.5145C1.00425 22.6895 0.0125649 20.677 2.28756 18.0229L5.17504 14.6687C5.71462 14.0416 5.96253 12.8749 5.71461 12.0874L4.24177 7.377C3.38135 4.60617 4.92717 3.07494 7.68342 3.9791L11.9855 5.39369C12.7147 5.62702 13.8084 5.46659 14.4209 5.01451L18.9126 1.77701C21.3334 0.0270069 23.2729 1.04787 23.2146 4.03745Z" stroke="white" stroke-width="1.5" stroke-linecap="round" stroke-linejoin="round"/>
</svg>
