<svg width="30" height="33" viewBox="0 0 30 33" fill="none" xmlns="http://www.w3.org/2000/svg">
<path d="M22.5 27.575H21.55C20.55 27.575 19.6 27.9625 18.9 28.6625L16.7625 30.775C15.7875 31.7375 14.2 31.7375 13.225 30.775L11.0875 28.6625C10.3875 27.9625 9.425 27.575 8.4375 27.575H7.5C5.425 27.575 3.75 25.9125 3.75 23.8625V10.2125C3.75 8.1625 5.425 6.5 7.5 6.5H22.5C24.575 6.5 26.25 8.1625 26.25 10.2125V23.85C26.25 25.9 24.575 27.575 22.5 27.575Z" stroke="#1976D2" stroke-width="2" stroke-miterlimit="10" stroke-linecap="round" stroke-linejoin="round"/>
<path d="M15.0883 15.1875C15.0383 15.1875 14.9633 15.1875 14.9008 15.1875C13.5883 15.1375 12.5508 14.075 12.5508 12.75C12.5508 11.4 13.6383 10.3125 14.9883 10.3125C16.3383 10.3125 17.4258 11.4125 17.4258 12.75C17.4383 14.075 16.4008 15.15 15.0883 15.1875Z" stroke="#1976D2" stroke-width="2" stroke-linecap="round" stroke-linejoin="round"/>
<path d="M11.5633 18.95C9.90078 20.0625 9.90078 21.875 11.5633 22.9875C13.4508 24.25 16.5508 24.25 18.4383 22.9875C20.1008 21.875 20.1008 20.0625 18.4383 18.95C16.5508 17.7 13.4633 17.7 11.5633 18.95Z" stroke="#1976D2" stroke-width="2" stroke-linecap="round" stroke-linejoin="round"/>
</svg>
