<svg width="19" height="19" viewBox="0 0 19 19" fill="none" xmlns="http://www.w3.org/2000/svg">
<path d="M7.95474 2.00298L3.18891 5.11423C1.66099 6.11173 1.66099 8.34423 3.18891 9.34173L7.95474 12.453C8.80974 13.0151 10.2189 13.0151 11.0739 12.453L15.816 9.34173C17.336 8.34423 17.336 6.11964 15.816 5.12214L11.0739 2.01089C10.2189 1.44089 8.80974 1.44089 7.95474 2.00298Z" stroke="#1976D2" stroke-linecap="round" stroke-linejoin="round"/>
<path d="M4.45714 10.355L4.44922 14.0679C4.44922 15.0733 5.22505 16.15 6.17505 16.4666L8.70047 17.3058C9.13589 17.4483 9.8563 17.4483 10.2996 17.3058L12.8251 16.4666C13.7751 16.15 14.5509 15.0733 14.5509 14.0679V10.3946" stroke="#1976D2" stroke-linecap="round" stroke-linejoin="round"/>
<path d="M16.9414 11.875V7.125" stroke="#1976D2" stroke-linecap="round" stroke-linejoin="round"/>
</svg>
