<svg width="30" height="30" viewBox="0 0 30 30" fill="none" xmlns="http://www.w3.org/2000/svg">
<path d="M21.2453 5H8.74531C3.95781 5 2.62031 6.15 2.50781 10.625C4.92031 10.625 6.87031 12.5875 6.87031 15C6.87031 17.4125 4.92031 19.3625 2.50781 19.375C2.62031 23.85 3.95781 25 8.74531 25H21.2453C26.2453 25 27.4953 23.75 27.4953 18.75V11.25C27.4953 6.25 26.2453 5 21.2453 5Z" stroke="#1976D2" stroke-width="2" stroke-linecap="round" stroke-linejoin="round"/>
<path d="M11.2422 5V9.375" stroke="#1976D2" stroke-width="2" stroke-linecap="round" stroke-linejoin="round"/>
<path d="M11.2422 20.625V25" stroke="#1976D2" stroke-width="2" stroke-linecap="round" stroke-linejoin="round"/>
<path d="M18.781 11.6625L19.556 13.225C19.631 13.375 19.781 13.4875 19.9435 13.5125L21.6685 13.7625C22.0935 13.825 22.2685 14.35 21.956 14.65L20.706 15.8625C20.581 15.975 20.531 16.15 20.556 16.325L20.856 18.0375C20.931 18.4625 20.481 18.7875 20.106 18.5875L18.5685 17.775C18.4185 17.7 18.231 17.7 18.081 17.775L16.5435 18.5875C16.156 18.7875 15.7185 18.4625 15.7935 18.0375L16.0935 16.325C16.1185 16.15 16.0685 15.9875 15.9435 15.8625L14.706 14.65C14.3935 14.35 14.5685 13.825 14.9935 13.7625L16.7185 13.5125C16.8935 13.4875 17.031 13.3875 17.106 13.225L17.8685 11.6625C18.0435 11.275 18.5935 11.275 18.781 11.6625Z" stroke="#1976D2" stroke-width="2" stroke-linecap="round" stroke-linejoin="round"/>
</svg>
