<svg width="26" height="27" viewBox="0 0 26 27" fill="none" xmlns="http://www.w3.org/2000/svg">
<path d="M13 0.82251C5.99356 0.82251 0.3125 6.53225 0.3125 13.5741C0.3125 20.6159 5.99356 26.3257 13 26.3257C20.0064 26.3257 25.6875 20.6159 25.6875 13.5741C25.6875 6.53225 20.0064 0.82251 13 0.82251ZM19.0974 10.4346C19.1059 10.5684 19.1059 10.7078 19.1059 10.8444C19.1059 15.0229 15.9396 19.836 10.1538 19.836C8.36963 19.836 6.71572 19.3151 5.32236 18.4185C5.57725 18.447 5.8208 18.4584 6.08135 18.4584C7.554 18.4584 8.90771 17.9574 9.98672 17.1092C8.60469 17.0808 7.44355 16.1699 7.04707 14.9176C7.53135 14.9887 7.96748 14.9887 8.46592 14.8606C7.7543 14.7153 7.11469 14.3269 6.65573 13.7613C6.19677 13.1958 5.94679 12.4879 5.94824 11.7581V11.7183C6.36455 11.9545 6.85449 12.0997 7.36709 12.1196C6.93617 11.831 6.58278 11.4399 6.33824 10.9812C6.09371 10.5224 5.96558 10.0101 5.96523 9.48959C5.96523 8.9004 6.11816 8.36245 6.39287 7.89565C7.18273 8.8729 8.16836 9.67216 9.28569 10.2415C10.403 10.8108 11.6271 11.1375 12.8782 11.2002C12.4336 9.05126 14.0309 7.31215 15.951 7.31215C16.8572 7.31215 17.6729 7.69356 18.2478 8.30837C18.9586 8.17459 19.6383 7.90703 20.2443 7.5484C20.0093 8.2799 19.5165 8.89756 18.8623 9.28751C19.4967 9.21919 20.1084 9.04272 20.6748 8.79509C20.2472 9.42698 19.7119 9.9877 19.0974 10.4346Z" fill="#1DA1F2"/>
</svg>
