<svg width="18" height="24" viewBox="0 0 18 24" fill="none" xmlns="http://www.w3.org/2000/svg">
<path d="M9 11.0556C10.1867 11.0556 11.3467 10.7314 12.3334 10.124C13.3201 9.51656 14.0891 8.65324 14.5433 7.64317C14.9974 6.6331 15.1162 5.52165 14.8847 4.44936C14.6532 3.37708 14.0818 2.39212 13.2426 1.61905C12.4035 0.845977 11.3344 0.319508 10.1705 0.106217C9.00665 -0.107073 7.80025 0.00239512 6.7039 0.420779C5.60754 0.839164 4.67047 1.54767 4.01118 2.45671C3.35189 3.36575 3 4.43449 3 5.52778C3.00159 6.99339 3.63424 8.39855 4.75911 9.43489C5.88399 10.4712 7.40919 11.0541 9 11.0556ZM9 1.84259C9.79112 1.84259 10.5645 2.05873 11.2223 2.46366C11.8801 2.86859 12.3928 3.44414 12.6955 4.11752C12.9983 4.7909 13.0775 5.53187 12.9231 6.24672C12.7688 6.96158 12.3878 7.61822 11.8284 8.1336C11.269 8.64898 10.5563 8.99996 9.78036 9.14216C9.00444 9.28435 8.20017 9.21137 7.46926 8.93245C6.73836 8.65352 6.11365 8.18118 5.67412 7.57516C5.2346 6.96913 5 6.25664 5 5.52778C5 4.55041 5.42143 3.61307 6.17157 2.92196C6.92172 2.23085 7.93913 1.84259 9 1.84259Z" fill="#1976D2"/>
<path d="M9 13.0657C6.61386 13.0683 4.32622 14.0222 2.63896 15.718C0.951708 17.4137 0.00264685 19.7129 0 22.1111C0 22.3777 0.105357 22.6333 0.292893 22.8218C0.48043 23.0103 0.734784 23.1162 1 23.1162C1.26522 23.1162 1.51957 23.0103 1.70711 22.8218C1.89464 22.6333 2 22.3777 2 22.1111C2 20.2452 2.7375 18.4558 4.05025 17.1364C5.36301 15.817 7.14348 15.0758 9 15.0758C10.8565 15.0758 12.637 15.817 13.9497 17.1364C15.2625 18.4558 16 20.2452 16 22.1111C16 22.3777 16.1054 22.6333 16.2929 22.8218C16.4804 23.0103 16.7348 23.1162 17 23.1162C17.2652 23.1162 17.5196 23.0103 17.7071 22.8218C17.8946 22.6333 18 22.3777 18 22.1111C17.9974 19.7129 17.0483 17.4137 15.361 15.718C13.6738 14.0222 11.3861 13.0683 9 13.0657Z" fill="#1976D2"/>
</svg>
