<?xml version="1.0" standalone="no"?>
<!DOCTYPE svg PUBLIC "-//W3C//DTD SVG 20010904//EN"
 "http://www.w3.org/TR/2001/REC-SVG-20010904/DTD/svg10.dtd">
<svg version="1.0" xmlns="http://www.w3.org/2000/svg"
 width="1200.000000pt" height="800.000000pt" viewBox="0 0 1200.000000 800.000000"
 preserveAspectRatio="xMidYMid meet">

<g transform="translate(0.000000,800.000000) scale(0.100000,-0.100000)"
fill="#000000" stroke="none">
<path d="M839 5480 c-103 -18 -198 -92 -243 -189 l-21 -46 0 -1350 0 -1350 22
-47 c32 -70 94 -131 166 -164 l62 -29 5305 0 5305 0 56 26 c76 36 129 86 165
156 l29 58 3 645 c1 355 -1 965 -6 1355 l-7 710 -23 43 c-48 90 -140 163 -222
176 -58 9 -10541 15 -10591 6z m2021 -497 c0 -66 -32 -166 -74 -232 -67 -105
-190 -187 -299 -198 l-57 -6 0 50 c0 55 22 138 52 197 25 49 100 129 155 168
51 35 157 77 196 78 26 0 27 -1 27 -57z m6654 31 c13 -5 16 -25 16 -115 0
-108 0 -109 19 -90 41 41 121 46 172 10 49 -35 59 -73 59 -233 l0 -146 -50 0
-50 0 0 140 c0 127 -2 142 -20 160 -28 28 -75 26 -105 -5 -24 -23 -25 -29 -25
-160 l0 -135 -50 0 -50 0 0 284 c0 218 3 286 13 289 18 8 53 8 71 1z m-3606
-291 l2 -283 -45 0 -45 0 0 286 0 285 43 -3 42 -3 3 -282z m682 181 l0 -106
33 20 c32 20 65 26 121 24 41 -3 111 -75 126 -132 27 -102 -15 -222 -92 -261
-55 -28 -137 -23 -173 11 l-25 23 0 -21 c0 -19 -5 -22 -45 -22 l-45 0 0 285 0
285 50 0 50 0 0 -106z m500 -179 l0 -285 -44 0 -43 0 -6 68 c-9 89 -9 487 0
495 3 4 26 7 50 7 l43 0 0 -285z m-1429 254 c11 -11 18 -27 15 -36 -3 -8 -6
-18 -6 -22 0 -4 -12 -13 -26 -20 -53 -24 -99 42 -58 83 21 22 50 20 75 -5z
m-1226 -11 c83 -255 165 -515 165 -521 0 -4 -21 -7 -47 -5 l-47 3 -24 78 -23
78 -87 -3 -86 -3 -24 -77 -24 -78 -44 0 c-27 0 -44 5 -44 12 0 10 141 452 161
505 7 20 16 23 64 23 36 0 57 -4 60 -12z m4795 -83 l0 -45 45 0 45 0 0 -40 0
-40 -45 0 -45 0 0 -114 c0 -123 3 -132 55 -138 25 -2 31 -8 33 -32 4 -35 -10
-46 -63 -46 -98 0 -125 46 -125 212 l0 117 -27 3 c-25 3 -28 7 -28 38 0 31 3
35 27 38 22 3 27 9 30 34 2 26 10 34 38 44 56 20 60 18 60 -31z m-2945 -64
c54 -30 65 -68 65 -233 l0 -148 -40 0 c-30 0 -40 4 -40 16 0 9 -3 14 -7 12
-83 -43 -138 -47 -188 -14 -28 19 -49 83 -39 123 14 57 80 103 172 118 32 5
42 11 42 25 0 42 -86 65 -145 38 -29 -13 -31 -12 -40 23 -5 22 -2 27 32 42 69
30 132 29 188 -2z m1196 3 c55 -28 94 -107 87 -177 l-3 -32 -127 -3 c-121 -2
-128 -4 -128 -23 0 -11 14 -34 30 -51 30 -29 33 -30 112 -27 l82 4 7 -28 c11
-40 -18 -52 -121 -52 -71 0 -91 4 -122 23 -53 33 -79 81 -85 155 -14 168 132
282 268 211z m714 -8 c107 -57 121 -254 23 -342 -30 -28 -80 -44 -134 -44 -54
0 -91 14 -127 48 -47 44 -61 80 -61 157 0 107 49 176 141 201 57 15 104 9 158
-20z m495 5 c50 -35 60 -73 60 -233 l0 -148 -44 0 -44 0 -4 141 c-3 134 -4
142 -27 160 -33 27 -73 24 -102 -7 -22 -24 -24 -34 -27 -160 l-4 -134 -49 0
-49 0 2 198 3 197 40 0 c34 0 40 -3 43 -23 3 -22 5 -23 22 -7 49 44 129 51
180 16z m1451 3 c55 -28 94 -107 87 -177 l-3 -32 -127 -3 c-121 -2 -128 -4
-128 -23 0 -11 14 -34 30 -51 30 -29 33 -30 113 -27 l82 4 3 -32 c3 -30 1 -33
-40 -44 -54 -14 -154 -7 -196 15 -52 27 -86 88 -90 162 -9 137 90 245 208 228
19 -3 46 -12 61 -20z m-4792 -2 c68 -34 76 -55 79 -228 l4 -154 -41 0 c-35 0
-41 3 -41 21 l0 20 -26 -20 c-59 -47 -160 -35 -194 22 -40 65 -14 149 57 182
21 10 62 21 93 24 63 7 75 26 39 62 -18 18 -29 21 -78 17 -31 -3 -63 -8 -72
-12 -12 -5 -18 0 -23 20 -8 32 -8 32 41 49 53 19 122 18 162 -3z m-543 -137
c26 -80 48 -144 49 -143 1 2 21 67 45 146 l43 142 50 0 c35 0 48 -3 44 -12
-10 -24 -98 -253 -120 -313 l-23 -60 -45 -3 -46 -3 -66 184 c-37 101 -67 189
-67 195 0 7 17 12 45 12 l44 0 47 -145z m862 -52 l2 -193 -45 0 -45 0 0 196 0
195 43 -3 42 -3 3 -192z m-2665 -134 c74 -25 118 -50 175 -103 72 -66 72 -66
-11 -148 -53 -52 -84 -93 -108 -143 -33 -68 -34 -74 -34 -190 0 -118 1 -121
37 -198 43 -89 115 -167 191 -207 57 -30 57 -31 -7 -165 -81 -170 -210 -336
-306 -393 -39 -23 -56 -27 -125 -26 -69 0 -90 5 -155 35 -71 32 -81 34 -185
34 -103 -1 -116 -3 -202 -38 -164 -66 -245 -47 -365 82 -162 175 -282 420
-324 662 -24 139 -16 328 19 430 49 143 119 236 232 311 142 93 290 102 478
30 59 -23 119 -42 133 -42 13 0 66 15 117 34 100 37 148 52 187 60 50 9 192
-5 253 -25z m4632 -438 c78 -11 136 -27 158 -43 18 -13 15 -28 -28 -145 -3 -8
-19 -5 -57 10 -72 28 -227 31 -276 4 -49 -27 -74 -73 -69 -127 6 -77 25 -94
195 -176 124 -60 164 -85 207 -128 67 -67 91 -134 82 -238 -12 -146 -111 -249
-276 -288 -109 -26 -334 2 -391 48 l-22 18 18 67 c10 37 23 67 28 67 5 0 38
-11 72 -25 36 -14 94 -28 136 -31 155 -13 250 48 250 161 0 85 -40 128 -170
185 -183 79 -243 123 -290 215 -33 64 -35 166 -4 235 62 142 241 219 437 191z
m-3019 -19 c8 -6 190 -555 330 -999 l32 -102 -90 -3 c-49 -2 -93 1 -97 5 -4 4
-30 77 -57 163 l-49 154 -180 -2 -180 -3 -47 -154 c-26 -85 -49 -155 -51 -157
-4 -5 -177 -7 -182 -2 -2 2 16 64 40 138 24 74 103 317 175 540 72 223 133
411 135 418 5 13 201 18 221 4z m3629 -204 l0 -93 98 -3 97 -3 0 -69 0 -69
-97 -3 -98 -3 -3 -170 c-4 -235 2 -291 39 -327 26 -27 35 -29 86 -27 l58 3 0
-69 0 -69 -35 -9 c-19 -5 -70 -7 -112 -5 -62 4 -85 10 -117 31 -82 54 -101
141 -101 459 l0 187 -57 3 -58 3 0 65 0 65 57 3 57 3 3 72 3 72 65 22 c36 12
76 22 90 22 25 1 25 1 25 -91z m845 -111 c78 -29 169 -121 199 -202 28 -72 38
-205 23 -286 -24 -126 -99 -227 -210 -281 -64 -32 -72 -33 -182 -33 -105 0
-120 2 -171 28 -31 15 -78 50 -103 77 -186 199 -133 570 97 683 103 50 236 56
347 14z m794 27 c13 -5 16 -23 16 -90 l0 -84 -50 0 c-66 0 -111 -20 -142 -61
-44 -59 -48 -89 -48 -334 0 -188 -3 -235 -14 -244 -9 -8 -43 -11 -93 -9 l-78
3 -3 403 -2 403 77 -3 78 -3 3 -62 c2 -35 7 -63 12 -63 6 0 10 5 10 11 0 19
51 78 87 100 50 31 115 45 147 33z m595 -15 c60 -18 152 -104 179 -168 27 -62
46 -181 37 -237 l-6 -44 -265 0 -264 0 0 -28 c0 -52 50 -134 101 -165 57 -35
162 -46 254 -27 123 25 110 29 124 -34 7 -31 10 -60 7 -64 -15 -24 -135 -46
-251 -47 -132 0 -183 13 -263 67 -189 129 -204 487 -27 663 23 24 58 51 76 61
83 43 201 52 298 23z m-4806 -5 c66 -22 140 -93 177 -167 39 -80 54 -162 47
-262 -16 -233 -159 -385 -360 -385 -79 0 -129 16 -176 57 -22 18 -42 33 -45
33 -3 0 -6 -90 -6 -200 l0 -200 -90 0 -90 0 -2 545 c-1 300 -2 553 -2 563 -1
15 9 17 79 17 l80 0 3 -52 c2 -29 6 -53 10 -53 3 0 25 18 47 40 23 22 64 49
91 60 62 24 173 26 237 4z m921 0 c26 -9 70 -37 100 -65 90 -82 133 -211 123
-364 -17 -235 -157 -385 -360 -385 -79 0 -129 16 -176 57 -22 18 -42 33 -45
33 -3 0 -6 -90 -6 -200 l0 -201 -87 3 -88 3 -3 563 -2 563 77 -3 78 -3 3 -58
3 -58 55 50 c35 32 73 56 102 65 63 20 168 20 226 0z"/>
<path d="M6619 4731 c-26 -26 -29 -36 -29 -91 0 -64 18 -113 45 -124 25 -9 74
-7 95 4 10 5 26 30 35 54 49 129 -59 244 -146 157z"/>
<path d="M4367 4880 c-3 -8 -18 -59 -35 -112 l-30 -98 69 0 c38 0 69 1 69 3
-5 33 -70 218 -73 207z"/>
<path d="M6165 4618 c-69 -37 -56 -118 19 -118 46 0 76 35 76 88 0 42 0 42
-37 42 -21 0 -47 -6 -58 -12z"/>
<path d="M7336 4744 c-14 -15 -26 -35 -26 -45 0 -17 9 -19 80 -19 77 0 80 1
80 23 0 13 -10 33 -23 45 -32 30 -78 29 -111 -4z"/>
<path d="M8053 4760 c-54 -22 -76 -144 -38 -210 25 -42 65 -57 106 -40 40 17
59 57 59 125 0 66 -18 106 -55 123 -30 14 -42 14 -72 2z"/>
<path d="M9996 4739 c-44 -51 -37 -59 54 -59 77 0 80 1 80 23 0 33 -40 67 -77
67 -23 0 -38 -9 -57 -31z"/>
<path d="M5243 4620 c-41 -17 -56 -75 -27 -104 22 -22 66 -20 98 5 21 17 26
29 26 65 l0 44 -37 -1 c-21 0 -48 -4 -60 -9z"/>
<path d="M4497 3870 c-4 -8 -16 -53 -27 -100 -12 -47 -41 -147 -66 -223 -24
-77 -44 -141 -44 -143 0 -2 66 -4 146 -4 113 0 145 3 141 13 -8 22 -116 371
-130 422 -9 31 -16 44 -20 35z"/>
<path d="M8866 3610 c-136 -41 -192 -312 -96 -464 41 -64 81 -86 155 -86 71 0
113 21 149 77 43 66 59 134 54 226 -4 72 -9 92 -39 147 -52 94 -128 128 -223
100z"/>
<path d="M10293 3619 c-18 -5 -48 -26 -67 -45 -35 -36 -73 -125 -61 -144 4 -6
71 -10 176 -10 187 0 187 0 175 64 -8 40 -41 92 -76 118 -30 22 -103 31 -147
17z"/>
<path d="M5440 3594 c-55 -24 -99 -73 -115 -128 -18 -58 -20 -204 -4 -261 33
-120 159 -178 269 -122 52 25 84 69 105 140 19 64 19 170 1 231 -37 123 -151
185 -256 140z"/>
<path d="M6360 3594 c-88 -38 -122 -102 -128 -239 -6 -155 24 -230 108 -272
114 -58 242 6 280 141 19 68 9 220 -17 271 -51 97 -152 139 -243 99z"/>
</g>
</svg>
