<svg width="8" height="14" viewBox="0 0 8 14" fill="none" xmlns="http://www.w3.org/2000/svg">
<path d="M6.3998 4.88006L1.8098 0.29006C1.62244 0.103809 1.36899 -0.000732422 1.1048 -0.000732422C0.840616 -0.000732422 0.587165 0.103809 0.399802 0.29006C0.306074 0.383023 0.23168 0.493624 0.180911 0.615483C0.130142 0.737343 0.104004 0.868048 0.104004 1.00006C0.104004 1.13207 0.130142 1.26278 0.180911 1.38464C0.23168 1.5065 0.306074 1.6171 0.399802 1.71006L4.9998 6.29006C5.09353 6.38302 5.16793 6.49362 5.21869 6.61548C5.26946 6.73734 5.2956 6.86805 5.2956 7.00006C5.2956 7.13207 5.26946 7.26278 5.21869 7.38464C5.16793 7.5065 5.09353 7.6171 4.9998 7.71006L0.399802 12.2901C0.211499 12.477 0.105184 12.7312 0.104246 12.9965C0.103308 13.2619 0.207825 13.5168 0.394803 13.7051C0.581781 13.8934 0.835903 13.9997 1.10127 14.0006C1.36663 14.0016 1.6215 13.897 1.8098 13.7101L6.3998 9.12006C6.96161 8.55756 7.27716 7.79506 7.27716 7.00006C7.27716 6.20506 6.96161 5.44256 6.3998 4.88006Z" fill="#164A77"/>
</svg>
