<svg width="16" height="18" viewBox="0 0 16 18" fill="none" xmlns="http://www.w3.org/2000/svg">
<path d="M15.1375 9.88747C15.0213 9.77031 14.8831 9.67732 14.7307 9.61386C14.5784 9.5504 14.415 9.51772 14.25 9.51772C14.085 9.51772 13.9216 9.5504 13.7693 9.61386C13.617 9.67732 13.4787 9.77031 13.3625 9.88747L9.25001 14V1.49997C9.25001 1.16845 9.11832 0.850507 8.8839 0.616086C8.64948 0.381666 8.33153 0.249969 8.00001 0.249969C7.66849 0.249969 7.35055 0.381666 7.11613 0.616086C6.88171 0.850507 6.75001 1.16845 6.75001 1.49997V14L2.63751 9.88747C2.52131 9.77031 2.38306 9.67732 2.23073 9.61386C2.07841 9.5504 1.91503 9.51772 1.75001 9.51772C1.585 9.51772 1.42162 9.5504 1.26929 9.61386C1.11697 9.67732 0.978718 9.77031 0.862514 9.88747C0.6297 10.1217 0.499023 10.4385 0.499023 10.7687C0.499023 11.099 0.6297 11.4158 0.862514 11.65L6.23751 17.0125C6.7042 17.482 7.33804 17.7472 8.00001 17.75C8.65764 17.7439 9.28639 17.4789 9.75001 17.0125L15.125 11.65C15.3595 11.4174 15.4924 11.1015 15.4948 10.7713C15.4971 10.4411 15.3687 10.1233 15.1375 9.88747Z" fill="#374957"/>
</svg>
