<svg width="18" height="18" viewBox="0 0 18 18" fill="none" xmlns="http://www.w3.org/2000/svg">
<path d="M10.7399 14.3028C10.7399 14.7603 10.4399 15.3603 10.0574 15.5928L8.99992 16.2753C8.01742 16.8828 6.65242 16.2003 6.65242 14.9853V10.9728C6.65242 10.4403 6.35242 9.75781 6.04492 9.38281L3.1649 6.35281C2.7824 5.97031 2.48242 5.29531 2.48242 4.83781V3.09781C2.48242 2.19031 3.16494 1.50781 3.99744 1.50781H14.0024C14.8349 1.50781 15.5174 2.1903 15.5174 3.0228V4.68781C15.5174 5.29531 15.1349 6.05281 14.7599 6.42781" stroke="#292D32" stroke-miterlimit="10" stroke-linecap="round" stroke-linejoin="round"/>
<path d="M12.0526 12.3898C13.3781 12.3898 14.4526 11.3153 14.4526 9.98985C14.4526 8.66437 13.3781 7.58984 12.0526 7.58984C10.7271 7.58984 9.65259 8.66437 9.65259 9.98985C9.65259 11.3153 10.7271 12.3898 12.0526 12.3898Z" stroke="#292D32" stroke-linecap="round" stroke-linejoin="round"/>
<path d="M14.9026 12.8398L14.1526 12.0898" stroke="#292D32" stroke-linecap="round" stroke-linejoin="round"/>
</svg>
