<?xml version="1.0" standalone="no"?>
<!DOCTYPE svg PUBLIC "-//W3C//DTD SVG 20010904//EN"
 "http://www.w3.org/TR/2001/REC-SVG-20010904/DTD/svg10.dtd">
<svg version="1.0" xmlns="http://www.w3.org/2000/svg"
 width="800.000000pt" height="236.000000pt" viewBox="0 0 800.000000 236.000000"
 preserveAspectRatio="xMidYMid meet">

<g transform="translate(0.000000,236.000000) scale(0.100000,-0.100000)"
fill="#000000" stroke="none">
<path d="M250 2309 c-115 -23 -193 -115 -205 -242 -3 -40 -5 -466 -3 -947 l3
-875 29 -58 c30 -62 79 -106 144 -129 55 -19 7509 -19 7564 0 65 23 114 67
144 129 l29 58 0 930 c0 738 -3 938 -13 967 -23 65 -67 114 -129 144 l-58 29
-3730 1 c-2105 1 -3749 -2 -3775 -7z m2443 -363 c18 -8 41 -21 52 -29 19 -15
19 -16 1 -36 -18 -20 -19 -20 -45 -1 -45 32 -118 30 -160 -6 -81 -68 -51 -211
51 -233 65 -14 148 25 148 71 0 15 -9 18 -60 18 l-60 0 0 30 0 30 90 0 90 0 0
-49 c0 -120 -137 -197 -255 -142 -55 25 -85 61 -101 121 -16 61 0 136 37 177
52 56 146 78 212 49z m1594 -1 c48 -20 71 -41 94 -87 35 -68 16 -183 -37 -230
-29 -26 -89 -48 -129 -48 -40 0 -100 22 -128 48 -65 59 -76 187 -23 257 51 67
145 92 223 60z m-1207 -20 c0 -24 -2 -24 -82 -27 l-83 -3 -3 -47 -3 -48 75 0
76 0 0 -30 0 -30 -76 0 -75 0 3 -47 3 -48 83 -3 c80 -3 82 -3 82 -27 l0 -25
-110 0 -110 0 0 180 0 180 110 0 110 0 0 -25z m290 0 c0 -23 -3 -25 -50 -25
l-50 0 0 -155 0 -155 -30 0 -30 0 0 155 0 155 -50 0 c-47 0 -50 2 -50 25 l0
25 130 0 130 0 0 -25z m220 -155 l0 -180 -30 0 -30 0 0 180 0 180 30 0 30 0 0
-180z m300 155 c0 -23 -3 -25 -50 -25 l-50 0 0 -155 0 -155 -30 0 -30 0 0 155
0 155 -50 0 c-47 0 -50 2 -50 25 l0 25 130 0 130 0 0 -25z m709 -102 l76 -122
3 125 3 124 29 0 30 0 0 -181 0 -180 -32 3 c-29 3 -39 15 -112 133 l-81 130
-3 -133 -3 -132 -29 0 -30 0 0 181 0 180 37 -3 c35 -3 39 -8 112 -125z m-3874
98 c49 -22 1149 -646 1187 -673 36 -25 45 -61 26 -102 -12 -24 -48 -49 -170
-118 -85 -49 -161 -88 -168 -88 -8 0 -67 54 -130 120 l-115 121 -367 -368
c-299 -299 -370 -365 -380 -355 -10 10 -13 159 -13 723 l0 711 28 24 c33 29
49 29 102 5z m2255 -603 c30 -15 66 -36 80 -47 l25 -20 -36 -37 -36 -36 -59
33 c-53 30 -67 34 -134 33 -117 0 -197 -50 -251 -154 -35 -67 -34 -186 3 -255
31 -58 67 -95 123 -123 128 -64 294 -18 353 98 40 80 40 80 -103 80 l-125 0 0
55 0 55 181 0 181 0 -4 -88 c-5 -108 -37 -181 -104 -241 -81 -71 -124 -86
-249 -86 -99 0 -116 3 -168 27 -73 35 -156 113 -191 181 -106 211 -3 453 233
543 23 9 70 13 131 11 80 -2 104 -6 150 -29z m2010 -358 l0 -370 -55 0 -55 0
0 370 0 370 55 0 55 0 0 -370z m1129 341 c117 -61 161 -182 107 -297 -45 -97
-119 -133 -273 -134 l-103 0 0 -140 0 -140 -55 0 -55 0 0 363 c0 200 3 367 8
371 4 4 79 6 167 4 143 -3 165 -6 204 -27z m301 -341 l0 -370 -55 0 -55 0 0
370 0 370 55 0 55 0 0 -370z m-2846 96 c87 -36 146 -129 146 -229 0 -144 -102
-248 -245 -249 -208 -1 -324 216 -209 394 25 39 94 85 147 99 39 10 120 2 161
-15z m562 -8 c119 -56 170 -213 108 -336 -76 -152 -286 -181 -407 -57 -74 77
-88 210 -30 303 30 49 111 107 162 115 45 8 122 -3 167 -25z m526 -3 c36 -24
38 -24 38 -5 0 17 7 20 51 20 l50 0 -3 -272 c-3 -257 -4 -275 -25 -313 -56
-104 -168 -148 -284 -113 -46 13 -113 68 -134 108 -14 28 -14 28 32 48 l47 20
18 -28 c46 -77 183 -78 221 -3 15 29 32 123 23 123 -3 0 -22 -11 -42 -25 -29
-19 -49 -25 -93 -25 -129 1 -228 94 -239 226 -16 191 192 337 340 239z m728
-3 c44 -27 114 -124 107 -147 -2 -5 -66 -36 -143 -67 -202 -84 -186 -75 -175
-97 18 -33 63 -55 114 -54 39 1 56 7 87 32 l40 32 40 -27 41 -27 -33 -35 c-48
-50 -101 -72 -179 -72 -153 0 -260 117 -246 270 16 183 199 283 347 192z
m1420 8 c88 -45 112 -118 108 -326 l-3 -129 -52 -3 -53 -3 0 33 c0 31 -1 32
-15 12 -55 -80 -232 -68 -285 19 -56 91 -22 188 82 231 42 18 143 21 184 6 35
-14 42 -5 24 28 -34 61 -136 78 -186 31 -23 -22 -24 -22 -69 -5 -25 10 -45 21
-45 25 0 5 9 20 21 35 57 72 194 94 289 46z m297 -149 c35 -85 65 -156 66
-158 2 -1 31 69 66 157 l62 160 61 0 c53 0 59 -2 53 -17 -8 -22 -288 -667
-291 -671 -1 -2 -27 -2 -57 0 l-56 3 54 119 c40 88 51 124 45 140 -4 12 -47
109 -94 216 -47 107 -86 198 -86 203 0 4 26 7 57 5 l57 -3 63 -154z"/>
<path d="M4180 1899 c-20 -4 -47 -21 -62 -38 -24 -27 -28 -40 -28 -92 0 -56 3
-64 34 -95 33 -33 54 -39 116 -34 59 5 100 58 100 128 0 96 -66 150 -160 131z"/>
<path d="M5855 1218 c-3 -8 -4 -66 -3 -129 l3 -114 90 -3 c72 -2 97 1 124 16
37 20 71 73 71 110 0 39 -28 87 -63 107 -42 25 -214 35 -222 13z"/>
<path d="M3412 964 c-133 -68 -89 -287 57 -287 83 0 141 61 141 148 0 112
-105 186 -198 139z"/>
<path d="M3964 966 c-101 -45 -111 -209 -17 -268 97 -59 213 12 213 132 0 105
-104 178 -196 136z"/>
<path d="M4514 966 c-73 -32 -105 -136 -65 -214 24 -48 68 -75 123 -75 137 0
178 208 56 283 -38 23 -70 25 -114 6z"/>
<path d="M5225 962 c-16 -11 -38 -28 -47 -39 -20 -22 -35 -83 -21 -83 10 0
205 79 212 86 3 3 -4 14 -16 25 -29 29 -91 35 -128 11z"/>
<path d="M6675 810 c-93 -21 -116 -94 -39 -126 63 -26 137 10 163 78 9 23 7
29 -7 36 -26 14 -84 20 -117 12z"/>
</g>
</svg>
