<svg width="12" height="7" viewBox="0 0 12 7" fill="none" xmlns="http://www.w3.org/2000/svg">
<path d="M0.408325 6.65833C0.485794 6.73644 0.577961 6.79843 0.67951 6.84074C0.781059 6.88305 0.889981 6.90483 0.99999 6.90483C1.11 6.90483 1.21892 6.88305 1.32047 6.84074C1.42202 6.79844 1.51419 6.73644 1.59166 6.65833L5.40832 2.84167C5.48579 2.76357 5.57796 2.70157 5.67951 2.65926C5.78106 2.61696 5.88998 2.59518 5.99999 2.59518C6.11 2.59518 6.21892 2.61696 6.32047 2.65927C6.42202 2.70157 6.51419 2.76357 6.59166 2.84167L10.4083 6.65833C10.4858 6.73644 10.578 6.79844 10.6795 6.84074C10.7811 6.88305 10.89 6.90483 11 6.90483C11.11 6.90483 11.2189 6.88305 11.3205 6.84074C11.422 6.79844 11.5142 6.73644 11.5917 6.65833C11.7469 6.5022 11.834 6.29099 11.834 6.07083C11.834 5.85068 11.7469 5.63947 11.5917 5.48334L7.76666 1.65834C7.29791 1.19018 6.66249 0.92721 5.99999 0.92721C5.33749 0.92721 4.70208 1.19018 4.23332 1.65834L0.408325 5.48334C0.253116 5.63947 0.165997 5.85068 0.165997 6.07083C0.165997 6.29099 0.253116 6.5022 0.408325 6.65833Z" fill="#333333"/>
</svg>
