<svg width="15" height="12" viewBox="0 0 15 12" fill="none" xmlns="http://www.w3.org/2000/svg">
<path d="M14.5001 6.00006C14.4952 5.47396 14.2832 4.97096 13.9101 4.60007L9.62008 0.30007C9.43271 0.113819 9.17926 0.00927734 8.91508 0.00927734C8.65089 0.00927734 8.39744 0.113819 8.21008 0.30007C8.11635 0.393033 8.04195 0.503634 7.99119 0.625493C7.94042 0.747352 7.91428 0.878057 7.91428 1.01007C7.91428 1.14208 7.94042 1.27279 7.99119 1.39465C8.04195 1.5165 8.11635 1.62711 8.21008 1.72007L11.5001 5.00006H1.50008C1.23486 5.00006 0.980506 5.10542 0.79297 5.29296C0.605433 5.48049 0.500076 5.73485 0.500076 6.00006C0.500076 6.26528 0.605433 6.51963 0.79297 6.70717C0.980506 6.89471 1.23486 7.00006 1.50008 7.00006H11.5001L8.21008 10.2901C8.02177 10.477 7.91546 10.7312 7.91452 10.9965C7.91358 11.2619 8.0181 11.5168 8.20508 11.7051C8.39205 11.8934 8.64618 11.9997 8.91154 12.0006C9.1769 12.0016 9.43177 11.897 9.62008 11.7101L13.9101 7.41006C14.2857 7.03671 14.4978 6.52964 14.5001 6.00006Z" fill="white"/>
</svg>
