<svg width="21" height="21" viewBox="0 0 21 21" fill="none" xmlns="http://www.w3.org/2000/svg">
<g clip-path="url(#clip0_86_6625)">
<path d="M10.5 2.16665C11.6054 2.17028 12.6992 2.3931 13.7179 2.82222C14.7366 3.25135 15.6602 3.87825 16.435 4.66665H13.8333C13.6123 4.66665 13.4004 4.75445 13.2441 4.91073C13.0878 5.06701 13 5.27897 13 5.49999C13 5.721 13.0878 5.93296 13.2441 6.08924C13.4004 6.24552 13.6123 6.33332 13.8333 6.33332H17.2858C17.6962 6.3331 18.0897 6.16999 18.3798 5.87982C18.67 5.58966 18.8331 5.19617 18.8333 4.78582V1.33332C18.8333 1.11231 18.7455 0.900344 18.5893 0.744064C18.433 0.587783 18.221 0.499986 18 0.499986C17.779 0.499986 17.567 0.587783 17.4107 0.744064C17.2545 0.900344 17.1667 1.11231 17.1667 1.33332V3.06499C15.7893 1.82453 14.0938 0.991994 12.2701 0.66061C10.4463 0.329226 8.56636 0.512079 6.84066 1.18869C5.11496 1.86531 3.61169 3.00896 2.49918 4.49159C1.38668 5.97422 0.708874 7.73727 0.541673 9.58332C0.530909 9.69937 0.544436 9.81639 0.581392 9.92692C0.618348 10.0374 0.677922 10.1391 0.75632 10.2253C0.834717 10.3115 0.930218 10.3805 1.03674 10.4278C1.14326 10.4751 1.25846 10.4997 1.37501 10.5C1.57883 10.5026 1.77628 10.429 1.92872 10.2937C2.08116 10.1584 2.1776 9.97101 2.19917 9.76832C2.38468 7.69394 3.33915 5.7639 4.87507 4.35735C6.411 2.9508 8.41735 2.1694 10.5 2.16665Z" fill="#0D71BA"/>
<path d="M19.6262 10.5002C19.4223 10.4976 19.2249 10.5712 19.0724 10.7065C18.92 10.8418 18.8236 11.0292 18.802 11.2319C18.6642 12.8179 18.0744 14.3311 17.1025 15.592C16.1306 16.8529 14.8175 17.8086 13.3188 18.3457C11.8201 18.8827 10.1988 18.9786 8.64728 18.622C7.09575 18.2653 5.67907 17.4711 4.56533 16.3335H7.16699C7.38801 16.3335 7.59997 16.2457 7.75625 16.0895C7.91253 15.9332 8.00033 15.7212 8.00033 15.5002C8.00033 15.2792 7.91253 15.0672 7.75625 14.9109C7.59997 14.7547 7.38801 14.6669 7.16699 14.6669H3.71449C3.51124 14.6668 3.30996 14.7067 3.12216 14.7844C2.93436 14.8622 2.76372 14.9762 2.62 15.1199C2.47628 15.2636 2.3623 15.4342 2.28457 15.622C2.20684 15.8098 2.16688 16.0111 2.16699 16.2144V19.6669C2.16699 19.8879 2.25479 20.0999 2.41107 20.2561C2.56735 20.4124 2.77931 20.5002 3.00033 20.5002C3.22134 20.5002 3.4333 20.4124 3.58958 20.2561C3.74586 20.0999 3.83366 19.8879 3.83366 19.6669V17.9352C5.21102 19.1757 6.9065 20.0082 8.73024 20.3396C10.554 20.671 12.434 20.4881 14.1597 19.8115C15.8854 19.1349 17.3886 17.9912 18.5011 16.5086C19.6137 15.026 20.2915 13.2629 20.4587 11.4169C20.4694 11.3008 20.4559 11.1838 20.4189 11.0733C20.382 10.9627 20.3224 10.8611 20.244 10.7749C20.1656 10.6886 20.0701 10.6197 19.9636 10.5724C19.8571 10.5251 19.7419 10.5005 19.6253 10.5002H19.6262Z" fill="#0D71BA"/>
</g>
<defs>
<clipPath id="clip0_86_6625">
<rect width="20" height="20" fill="white" transform="translate(0.5 0.5)"/>
</clipPath>
</defs>
</svg>
