<svg width="24" height="24" viewBox="0 0 24 24" fill="none" xmlns="http://www.w3.org/2000/svg">
<path d="M23.7068 22.2936L17.7378 16.3246C19.3644 14.3352 20.1642 11.7967 19.9716 9.2342C19.7791 6.67167 18.609 4.28117 16.7034 2.55716C14.7977 0.833147 12.3024 -0.0924713 9.73342 -0.0282395C7.16447 0.0359923 4.71849 1.08516 2.9014 2.90225C1.08431 4.71934 0.0351379 7.16533 -0.029094 9.73428C-0.0933258 12.3032 0.832293 14.7986 2.5563 16.7042C4.28031 18.6099 6.67081 19.7799 9.23334 19.9725C11.7959 20.165 14.3344 19.3653 16.3238 17.7386L22.2928 23.7076C22.4814 23.8898 22.734 23.9906 22.9962 23.9883C23.2584 23.986 23.5092 23.8809 23.6946 23.6955C23.88 23.51 23.9852 23.2592 23.9875 22.997C23.9897 22.7348 23.8889 22.4822 23.7068 22.2936ZM9.99978 18.0006C8.41753 18.0006 6.87081 17.5314 5.55522 16.6524C4.23963 15.7733 3.21425 14.5239 2.60875 13.0621C2.00324 11.6003 1.84482 9.99176 2.1535 8.43991C2.46218 6.88807 3.22411 5.4626 4.34293 4.34378C5.46175 3.22496 6.88721 2.46304 8.43906 2.15435C9.99091 1.84567 11.5994 2.0041 13.0613 2.6096C14.5231 3.2151 15.7725 4.24048 16.6515 5.55607C17.5306 6.87167 17.9998 8.41839 17.9998 10.0006C17.9974 12.1216 17.1538 14.1551 15.654 15.6549C14.1542 17.1546 12.1208 17.9983 9.99978 18.0006Z" fill="#666666"/>
</svg>
