<svg width="30" height="30" viewBox="0 0 30 30" fill="none" xmlns="http://www.w3.org/2000/svg">
<path d="M25.713 7.07694C25.4317 6.73938 25.0796 6.46789 24.6815 6.28175C24.2835 6.09562 23.8494 5.9994 23.41 5.99994H7.242L7.2 5.64894C7.11405 4.91936 6.76338 4.24667 6.21449 3.75842C5.6656 3.27016 4.95663 3.00028 4.222 2.99994L4 2.99994C3.73478 2.99994 3.48043 3.1053 3.29289 3.29283C3.10536 3.48037 3 3.73472 3 3.99994C3 4.26516 3.10536 4.51951 3.29289 4.70705C3.48043 4.89458 3.73478 4.99994 4 4.99994H4.222C4.46693 4.99997 4.70334 5.0899 4.88637 5.25265C5.06941 5.41541 5.18634 5.63969 5.215 5.88294L6.591 17.5829C6.73385 18.7997 7.31848 19.9217 8.23391 20.7359C9.14934 21.5502 10.3319 22 11.557 21.9999H22C22.2652 21.9999 22.5196 21.8946 22.7071 21.707C22.8946 21.5195 23 21.2652 23 20.9999C23 20.7347 22.8946 20.4804 22.7071 20.2928C22.5196 20.1053 22.2652 19.9999 22 19.9999H11.557C10.9381 19.9982 10.3348 19.8051 9.82994 19.447C9.32507 19.0889 8.94331 18.5835 8.737 17.9999H20.657C21.8293 18 22.9643 17.5882 23.8638 16.8364C24.7633 16.0846 25.37 15.0406 25.578 13.8869L26.363 9.53294C26.4414 9.10095 26.4237 8.65701 26.3114 8.23258C26.1991 7.80815 25.9948 7.41362 25.713 7.07694ZM24.4 9.17794L23.614 13.5319C23.4891 14.2249 23.1245 14.8519 22.5839 15.3031C22.0433 15.7543 21.3612 16.001 20.657 15.9999H8.419L7.478 7.99994H23.41C23.5569 7.99906 23.7022 8.03056 23.8355 8.09219C23.9689 8.15383 24.087 8.24409 24.1815 8.35655C24.276 8.46901 24.3446 8.60091 24.3824 8.74288C24.4201 8.88484 24.4262 9.03338 24.4 9.17794Z" fill="#666666"/>
<path d="M10 27.0006C11.1046 27.0006 12 26.1051 12 25.0006C12 23.896 11.1046 23.0006 10 23.0006C8.89543 23.0006 8 23.896 8 25.0006C8 26.1051 8.89543 27.0006 10 27.0006Z" fill="#666666"/>
<path d="M20 27.0006C21.1046 27.0006 22 26.1051 22 25.0006C22 23.896 21.1046 23.0006 20 23.0006C18.8954 23.0006 18 23.896 18 25.0006C18 26.1051 18.8954 27.0006 20 27.0006Z" fill="#666666"/>
</svg>
