<svg width="40" height="40" viewBox="0 0 40 40" fill="none" xmlns="http://www.w3.org/2000/svg">
<path d="M0 20C0 8.95431 8.95431 0 20 0C31.0457 0 40 8.95431 40 20C40 31.0457 31.0457 40 20 40C8.95431 40 0 31.0457 0 20Z" fill="#DD2D38"/>
<path d="M17.0835 21.875C17.0835 23.475 18.4002 24.7917 20.0002 24.7917C21.6002 24.7917 22.9168 23.475 22.9168 21.875" stroke="white" stroke-width="1.5" stroke-miterlimit="10" stroke-linecap="round" stroke-linejoin="round"/>
<path d="M17.3419 11.6667L14.3252 14.6917" stroke="white" stroke-width="1.5" stroke-miterlimit="10" stroke-linecap="round" stroke-linejoin="round"/>
<path d="M22.6582 11.6667L25.6749 14.6917" stroke="white" stroke-width="1.5" stroke-miterlimit="10" stroke-linecap="round" stroke-linejoin="round"/>
<path d="M11.6665 16.5417C11.6665 15 12.4915 14.875 13.5165 14.875H26.4832C27.5082 14.875 28.3332 15 28.3332 16.5417C28.3332 18.3333 27.5082 18.2083 26.4832 18.2083H13.5165C12.4915 18.2083 11.6665 18.3333 11.6665 16.5417Z" stroke="white" stroke-width="1.5"/>
<path d="M12.9165 18.3333L14.0915 25.5333C14.3582 27.15 14.9998 28.3333 17.3832 28.3333H22.4082C24.9998 28.3333 25.3832 27.2 25.6832 25.6333L27.0832 18.3333" stroke="white" stroke-width="1.5" stroke-linecap="round"/>
</svg>
