<svg width="19" height="19" viewBox="0 0 19 19" fill="none" xmlns="http://www.w3.org/2000/svg">
<path d="M6.86523 11.3444C6.86523 12.3657 7.64898 13.189 8.62273 13.189H10.6098C11.4569 13.189 12.1457 12.4686 12.1457 11.5819C12.1457 10.6161 11.7261 10.2757 11.1007 10.054L7.91023 8.94567C7.28482 8.724 6.86523 8.38359 6.86523 7.41775C6.86523 6.53109 7.55398 5.81067 8.40107 5.81067H10.3882C11.3619 5.81067 12.1457 6.634 12.1457 7.65525" stroke="#1976D2" stroke-linecap="round" stroke-linejoin="round"/>
<path d="M9.5 4.75V14.25" stroke="#1976D2" stroke-linecap="round" stroke-linejoin="round"/>
<path d="M9.50065 17.4167C13.8729 17.4167 17.4173 13.8723 17.4173 9.50004C17.4173 5.12779 13.8729 1.58337 9.50065 1.58337C5.1284 1.58337 1.58398 5.12779 1.58398 9.50004C1.58398 13.8723 5.1284 17.4167 9.50065 17.4167Z" stroke="#1976D2" stroke-linecap="round" stroke-linejoin="round"/>
</svg>
