<svg width="20" height="21" viewBox="0 0 20 21" fill="none" xmlns="http://www.w3.org/2000/svg">
<path d="M10 11.125C11.3807 11.125 12.5 10.0057 12.5 8.625C12.5 7.24429 11.3807 6.125 10 6.125C8.61929 6.125 7.5 7.24429 7.5 8.625C7.5 10.0057 8.61929 11.125 10 11.125Z" stroke="white" stroke-width="1.5" stroke-linecap="round" stroke-linejoin="round"/>
<path d="M16.25 8.625C16.25 14.25 10 18.625 10 18.625C10 18.625 3.75 14.25 3.75 8.625C3.75 6.9674 4.40848 5.37769 5.58058 4.20558C6.75269 3.03348 8.3424 2.375 10 2.375C11.6576 2.375 13.2473 3.03348 14.4194 4.20558C15.5915 5.37769 16.25 6.9674 16.25 8.625V8.625Z" stroke="white" stroke-width="1.5" stroke-linecap="round" stroke-linejoin="round"/>
</svg>
