<svg width="22" height="22" viewBox="0 0 22 22" fill="none" xmlns="http://www.w3.org/2000/svg">
<path d="M17.416 10.0832H6.54435L9.87185 6.08651C10.0274 5.89931 10.1023 5.65797 10.08 5.41558C10.0576 5.17319 9.93988 4.94961 9.75268 4.79401C9.56548 4.63842 9.32414 4.56356 9.08175 4.58591C8.83936 4.60826 8.61578 4.72598 8.46018 4.91318L3.87685 10.4132C3.84601 10.4569 3.81844 10.5029 3.79435 10.5507C3.79435 10.5965 3.79435 10.624 3.73018 10.6698C3.68863 10.7749 3.66688 10.8868 3.66602 10.9998C3.66688 11.1129 3.68863 11.2247 3.73018 11.3298C3.73018 11.3757 3.73018 11.4032 3.79435 11.449C3.81844 11.4968 3.84601 11.5428 3.87685 11.5865L8.46018 17.0865C8.54637 17.19 8.6543 17.2732 8.77629 17.3302C8.89828 17.3873 9.03135 17.4167 9.16602 17.4165C9.3802 17.4169 9.58776 17.3423 9.75268 17.2057C9.8455 17.1287 9.92223 17.0342 9.97847 16.9276C10.0347 16.8209 10.0694 16.7042 10.0804 16.5842C10.0915 16.4641 10.0788 16.343 10.043 16.2279C10.0072 16.1128 9.94903 16.0058 9.87185 15.9132L6.54435 11.9165H17.416C17.6591 11.9165 17.8923 11.8199 18.0642 11.648C18.2361 11.4761 18.3327 11.243 18.3327 10.9998C18.3327 10.7567 18.2361 10.5236 18.0642 10.3517C17.8923 10.1798 17.6591 10.0832 17.416 10.0832Z" fill="#1C1D20"/>
</svg>
