<svg width="44" height="43" viewBox="0 0 44 43" fill="none" xmlns="http://www.w3.org/2000/svg">
<path d="M3.67041 21.5035C3.67144 25.77 5.22961 29.8963 8.06484 33.1406C10.9001 36.385 14.8264 38.5347 19.1382 39.2034V26.6814H14.4871V21.5035H19.1437V17.5619C19.0409 16.6393 19.1472 15.706 19.4551 14.8281C19.7629 13.9502 20.2648 13.1493 20.9251 12.4824C21.5853 11.8154 22.3878 11.2987 23.2754 10.9689C24.163 10.6392 25.114 10.5045 26.0609 10.5744C27.4359 10.5959 28.8109 10.7159 30.1676 10.9327V15.3384H27.8502C27.4564 15.288 27.056 15.3247 26.6786 15.4459C26.3012 15.567 25.9565 15.7695 25.67 16.0383C25.3835 16.3072 25.1624 16.6355 25.0232 16.9991C24.8839 17.3626 24.8301 17.7521 24.8656 18.1388V21.5035H29.9457L29.1336 26.6832H24.8656V39.2034C28.3262 38.6689 31.5577 37.1765 34.1774 34.903C36.7971 32.6294 38.6953 29.6699 39.6473 26.3747C40.5993 23.0796 40.5652 19.5869 39.5491 16.3101C38.533 13.0333 36.5773 10.1097 33.9138 7.88534C31.2502 5.66102 27.9902 4.22914 24.5197 3.75925C21.0493 3.28936 17.5138 3.80113 14.3317 5.23397C11.1496 6.66681 8.45434 8.96071 6.56489 11.8441C4.67543 14.7275 3.67097 18.0796 3.67041 21.5035Z" fill="#3B5998"/>
</svg>
