<svg width="43" height="43" viewBox="0 0 43 43" fill="none" xmlns="http://www.w3.org/2000/svg">
<path d="M21.5 2.68872C11.1111 2.68872 2.6875 11.1123 2.6875 21.5012C2.6875 31.89 11.1111 40.3136 21.5 40.3136C31.8889 40.3136 40.3125 31.89 40.3125 21.5012C40.3125 11.1123 31.8889 2.68872 21.5 2.68872ZM30.5409 16.8695C30.5535 17.0668 30.5535 17.2726 30.5535 17.4741C30.5535 23.6386 25.8588 30.7394 17.2798 30.7394C14.6343 30.7394 12.1819 29.971 10.1159 28.6482C10.4938 28.6902 10.855 28.707 11.2413 28.707C13.4249 28.707 15.4321 27.968 17.032 26.7166C14.9828 26.6746 13.2611 25.3309 12.6732 23.4832C13.3913 23.5882 14.038 23.5882 14.7771 23.3992C13.7219 23.1849 12.7735 22.6118 12.093 21.7774C11.4125 20.943 11.0418 19.8988 11.0439 18.8221V18.7633C11.6612 19.1118 12.3877 19.326 13.1478 19.3554C12.5088 18.9296 11.9848 18.3527 11.6222 17.6758C11.2596 16.999 11.0697 16.2432 11.0691 15.4753C11.0691 14.6061 11.2959 13.8124 11.7032 13.1238C12.8744 14.5655 14.3358 15.7447 15.9926 16.5846C17.6493 17.4245 19.4643 17.9065 21.3194 17.999C20.6602 14.8286 23.0285 12.2629 25.8756 12.2629C27.2193 12.2629 28.4287 12.8256 29.2812 13.7326C30.3352 13.5353 31.343 13.1406 32.2416 12.6115C31.8931 13.6907 31.1624 14.6019 30.1924 15.1772C31.133 15.0764 32.04 14.816 32.8799 14.4507C32.2458 15.3829 31.4521 16.2102 30.5409 16.8695Z" fill="#1DA1F2"/>
</svg>
