<svg width="41" height="41" viewBox="0 0 41 41" fill="none" xmlns="http://www.w3.org/2000/svg">
<path d="M20.4998 0.820435C9.63072 0.820435 0.819824 9.63132 0.819824 20.5004C0.819824 31.3695 9.63072 40.1804 20.4998 40.1804C31.3689 40.1804 40.1798 31.3695 40.1798 20.5004C40.1798 9.63132 31.3689 0.820435 20.4998 0.820435ZM15.6823 28.6573H11.6971V15.8326H15.6823V28.6573ZM13.6651 14.2582C12.4064 14.2582 11.5926 13.3664 11.5926 12.2635C11.5926 11.1381 12.431 10.273 13.7164 10.273C15.0017 10.273 15.7889 11.1381 15.8135 12.2635C15.8135 13.3664 15.0017 14.2582 13.6651 14.2582ZM30.2373 28.6573H26.2521V21.55C26.2521 19.8956 25.674 18.7722 24.2329 18.7722C23.132 18.7722 22.4781 19.5328 22.189 20.2646C22.0824 20.525 22.0558 20.894 22.0558 21.2609V28.6553H18.0685V19.9223C18.0685 18.3213 18.0173 16.9826 17.964 15.8305H21.4264L21.6089 17.612H21.6888C22.2136 16.7756 23.499 15.5415 25.6494 15.5415C28.2714 15.5415 30.2373 17.2983 30.2373 21.0744V28.6573Z" fill="#0077B5"/>
</svg>
