<svg width="18" height="18" viewBox="0 0 18 18" fill="none" xmlns="http://www.w3.org/2000/svg">
<path d="M1.5 16.5H16.5" stroke="white" stroke-linecap="round" stroke-linejoin="round"/>
<path d="M2.33252 16.5V9.75C2.33252 8.505 3.45002 7.5 4.83002 7.5H13.1625C14.5425 7.5 15.66 8.505 15.66 9.75V16.5" stroke="white" stroke-linecap="round" stroke-linejoin="round"/>
<path d="M4.16992 7.5V5.3775C4.16992 4.4775 4.97992 3.75 5.98492 3.75H12.0224C13.0199 3.75 13.8299 4.4775 13.8299 5.3775V7.5" stroke="white" stroke-linecap="round" stroke-linejoin="round"/>
<path d="M2.64746 10.485L2.92496 10.4925C3.47996 10.5 3.92246 10.95 3.92246 11.505V11.7525C3.92246 12.3075 4.37246 12.765 4.93496 12.765C5.48996 12.765 5.94746 12.315 5.94746 11.7525V11.52C5.94746 10.965 6.39746 10.5075 6.95996 10.5075C7.51496 10.5075 7.97246 10.9575 7.97246 11.52V11.7525C7.97246 12.3075 8.42246 12.765 8.98496 12.765C9.53996 12.765 9.99746 12.315 9.99746 11.7525V11.52C9.99746 10.965 10.4475 10.5075 11.01 10.5075C11.565 10.5075 12.0225 10.9575 12.0225 11.52V11.7525C12.0225 12.3075 12.4725 12.765 13.035 12.765C13.59 12.765 14.0475 12.315 14.0475 11.7525V11.52C14.0475 10.965 14.4975 10.5075 15.06 10.5075H15.3975" stroke="white" stroke-linecap="round" stroke-linejoin="round"/>
<path d="M6 3.75V2.25" stroke="white" stroke-linecap="round" stroke-linejoin="round"/>
<path d="M12 3.75V2.25" stroke="white" stroke-linecap="round" stroke-linejoin="round"/>
<path d="M9 3.75V1.5" stroke="white" stroke-linecap="round" stroke-linejoin="round"/>
</svg>
