<svg width="14" height="14" viewBox="0 0 14 14" fill="none" xmlns="http://www.w3.org/2000/svg">
<path fill-rule="evenodd" clip-rule="evenodd" d="M13.0208 0.635666C12.6303 0.245142 11.9971 0.245143 11.6066 0.635667L6.65697 5.5853L1.70745 0.635771C1.31692 0.245246 0.683756 0.245246 0.293231 0.63577C-0.0972928 1.02629 -0.0972926 1.65946 0.293232 2.04998L5.24276 6.99951L0.292893 11.9494C-0.0976311 12.3399 -0.0976311 12.9731 0.292893 13.3636C0.683417 13.7541 1.31658 13.7541 1.70711 13.3636L6.65697 8.41372L11.6069 13.3637C11.9975 13.7542 12.6306 13.7542 13.0212 13.3637C13.4117 12.9732 13.4117 12.34 13.0212 11.9495L8.07118 6.99951L13.0208 2.04988C13.4113 1.65936 13.4113 1.02619 13.0208 0.635666Z" fill="#1976D2"/>
</svg>
