<svg width="23" height="23" viewBox="0 0 23 23" fill="none" xmlns="http://www.w3.org/2000/svg">
<path fill-rule="evenodd" clip-rule="evenodd" d="M22.1296 0.497789C21.4659 -0.16593 20.3898 -0.16593 19.7261 0.497789L11.3137 8.91016L2.90135 0.497791C2.23764 -0.165927 1.16154 -0.165928 0.497816 0.497791C-0.165902 1.16151 -0.165902 2.23761 0.497817 2.90133L8.91018 11.3137L0.497789 19.7261C-0.16593 20.3898 -0.16593 21.4659 0.497789 22.1296C1.16151 22.7933 2.23761 22.7933 2.90133 22.1296L11.3137 13.7172L19.7261 22.1296C20.3898 22.7933 21.4659 22.7933 22.1297 22.1296C22.7934 21.4659 22.7934 20.3898 22.1297 19.7261L13.7173 11.3137L22.1296 2.90133C22.7933 2.23761 22.7933 1.16151 22.1296 0.497789Z" fill="#1C1D20"/>
</svg>
