<svg width="25" height="25" viewBox="0 0 25 25" fill="none" xmlns="http://www.w3.org/2000/svg">
<path d="M11.5 2.5H9.5C4.5 2.5 2.5 4.5 2.5 9.5V15.5C2.5 20.5 4.5 22.5 9.5 22.5H15.5C20.5 22.5 22.5 20.5 22.5 15.5V13.5" stroke="#666666" stroke-width="1.5" stroke-linecap="round" stroke-linejoin="round"/>
<path d="M16.5399 3.51928L8.65988 11.3993C8.35988 11.6993 8.05988 12.2893 7.99988 12.7193L7.56988 15.7293C7.40988 16.8193 8.17988 17.5793 9.26988 17.4293L12.2799 16.9993C12.6999 16.9393 13.2899 16.6393 13.5999 16.3393L21.4799 8.45928C22.8399 7.09928 23.4799 5.51928 21.4799 3.51928C19.4799 1.51928 17.8999 2.15928 16.5399 3.51928Z" stroke="#666666" stroke-width="1.5" stroke-miterlimit="10" stroke-linecap="round" stroke-linejoin="round"/>
<path d="M15.4102 4.65039C16.0802 7.04039 17.9502 8.91039 20.3502 9.59039" stroke="#666666" stroke-width="1.5" stroke-miterlimit="10" stroke-linecap="round" stroke-linejoin="round"/>
</svg>
