<svg width="44" height="41" viewBox="0 0 44 41" fill="none" xmlns="http://www.w3.org/2000/svg">
<path d="M24.848 24.5H26.75C26.9489 24.5 27.1397 24.579 27.2803 24.7196C27.421 24.8603 27.5 25.051 27.5 25.25C27.5 25.4489 27.421 25.6396 27.2803 25.7803C27.1397 25.9209 26.9489 26 26.75 26H16.25C16.0511 26 15.8603 25.9209 15.7197 25.7803C15.579 25.6396 15.5 25.4489 15.5 25.25C15.5 25.051 15.579 24.8603 15.7197 24.7196C15.8603 24.579 16.0511 24.5 16.25 24.5H17.3855C17.1732 24.2645 17.041 23.9678 17.0079 23.6525C16.9747 23.3372 17.0423 23.0194 17.201 22.745L20.951 16.25C21.1499 15.9054 21.4775 15.6541 21.8618 15.5511C22.2461 15.4482 22.6555 15.5021 23 15.701L26.897 17.951C27.2415 18.1499 27.4929 18.4775 27.5958 18.8618C27.6988 19.246 27.6449 19.6554 27.446 20L24.848 24.5ZM26.147 19.25L22.25 17L18.5 23.495L20.24 24.5H23.117L26.147 19.25Z" fill="#C4C4C4"/>
<path d="M27.44 23L28.3055 21.5C28.5289 21.5084 28.7477 21.5666 28.9457 21.6704C29.1437 21.7742 29.316 21.921 29.45 22.1L33.2 27.0995C33.3947 27.3591 33.5 27.6749 33.5 27.9995V35C33.5 35.3978 33.342 35.7794 33.0607 36.0607C32.7794 36.342 32.3978 36.5 32 36.5H11C10.6022 36.5 10.2206 36.342 9.93934 36.0607C9.65804 35.7794 9.5 35.3978 9.5 35V27.9995C9.5 27.6749 9.60527 27.3591 9.8 27.0995L13.55 22.1C13.6897 21.9137 13.8709 21.7625 14.0792 21.6584C14.2875 21.5542 14.5171 21.5 14.75 21.5H16.1945L15.476 22.745C15.4292 22.8262 15.39 22.9116 15.359 23H14.75L11.375 27.5H31.625L28.25 23H27.44ZM11 35H32V29H11V35Z" fill="#C4C4C4"/>
<path d="M21.5278 1.35641C21.6836 0.908925 22.3164 0.908925 22.4722 1.35641L23.567 4.50127C23.637 4.70222 23.8264 4.83688 24.0392 4.83688H27.5047C27.9974 4.83688 28.1931 5.4742 27.7853 5.75071L25.0424 7.61071C24.8549 7.73781 24.7763 7.97504 24.8508 8.18892L25.9123 11.238C26.0705 11.6926 25.5579 12.0864 25.1594 11.8162L22.2806 9.86405C22.1112 9.74915 21.8888 9.74916 21.7194 9.86405L18.8406 11.8162C18.4421 12.0864 17.9295 11.6926 18.0877 11.238L19.1492 8.18892C19.2237 7.97504 19.1451 7.73781 18.9576 7.61071L16.2147 5.75071C15.8069 5.4742 16.0026 4.83688 16.4953 4.83688H19.9608C20.1736 4.83688 20.363 4.70222 20.433 4.50127L21.5278 1.35641Z" fill="#C4C4C4"/>
<path d="M36.0245 4.46352C36.1741 4.00287 36.8259 4.00287 36.9755 4.46353L37.9593 7.49139C38.0263 7.6974 38.2183 7.83688 38.4349 7.83688H41.6186C42.1029 7.83688 42.3043 8.45669 41.9124 8.74139L39.3368 10.6127C39.1615 10.74 39.0882 10.9657 39.1552 11.1717L40.139 14.1996C40.2886 14.6602 39.7614 15.0433 39.3695 14.7586L36.7939 12.8873C36.6186 12.76 36.3814 12.76 36.2061 12.8873L33.6305 14.7586C33.2386 15.0433 32.7114 14.6602 32.861 14.1996L33.8448 11.1717C33.9118 10.9657 33.8385 10.74 33.6632 10.6127L31.0876 8.74139C30.6957 8.45669 30.8971 7.83688 31.3814 7.83688H34.5651C34.7817 7.83688 34.9737 7.6974 35.0407 7.49139L36.0245 4.46352Z" fill="#C4C4C4"/>
<path d="M7.02447 4.46352C7.17415 4.00287 7.82585 4.00287 7.97553 4.46353L8.95934 7.49139C9.02628 7.6974 9.21826 7.83688 9.43487 7.83688H12.6186C13.1029 7.83688 13.3043 8.45669 12.9124 8.74139L10.3368 10.6127C10.1615 10.74 10.0882 10.9657 10.1552 11.1717L11.139 14.1996C11.2886 14.6602 10.7614 15.0433 10.3695 14.7586L7.79389 12.8873C7.61865 12.76 7.38135 12.76 7.20611 12.8873L4.63045 14.7586C4.23859 15.0433 3.71136 14.6602 3.86103 14.1996L4.84484 11.1717C4.91178 10.9657 4.83845 10.74 4.66321 10.6127L2.08755 8.74139C1.6957 8.45669 1.89708 7.83688 2.38145 7.83688H5.56513C5.78174 7.83688 5.97372 7.6974 6.04066 7.49139L7.02447 4.46352Z" fill="#C4C4C4"/>
</svg>
