<svg width="19" height="19" viewBox="0 0 19 19" fill="none" xmlns="http://www.w3.org/2000/svg">
<path d="M14.7489 5.66041C14.7806 6.14333 14.741 6.68958 14.646 7.29916L14.0681 11.0121C13.5772 14.1075 12.1443 15.1525 9.04891 14.6696L5.33599 14.0837C4.26724 13.9175 3.44391 13.6325 2.84224 13.205C1.69432 12.4054 1.36182 11.0912 1.67849 9.06458L2.26432 5.35166C2.75516 2.25624 4.18807 1.21124 7.28349 1.69416L10.9964 2.27999C13.4822 2.66791 14.646 3.68124 14.7489 5.66041Z" stroke="white" stroke-linecap="round" stroke-linejoin="round"/>
<path d="M16.2294 10.6637L15.0419 14.2342C14.0523 17.2108 12.469 18.0025 9.49229 17.0129L5.92187 15.8254C4.12479 15.2317 3.12729 14.4083 2.84229 13.205C3.44395 13.6325 4.26729 13.9175 5.33604 14.0837L9.04895 14.6696C12.1444 15.1525 13.5773 14.1075 14.0681 11.0121L14.646 7.29916C14.741 6.68958 14.7806 6.14333 14.749 5.66041C16.641 6.66583 17.0527 8.18583 16.2294 10.6637Z" stroke="white" stroke-linecap="round" stroke-linejoin="round"/>
<path d="M6.5235 7.10917C7.28427 7.10917 7.901 6.49244 7.901 5.73167C7.901 4.97089 7.28427 4.35417 6.5235 4.35417C5.76272 4.35417 5.146 4.97089 5.146 5.73167C5.146 6.49244 5.76272 7.10917 6.5235 7.10917Z" stroke="white" stroke-linecap="round" stroke-linejoin="round"/>
</svg>
