<svg width="19" height="19" viewBox="0 0 19 19" fill="none" xmlns="http://www.w3.org/2000/svg">
<path d="M6.33397 17.4167H12.6673C15.8498 17.4167 16.4198 16.1421 16.5861 14.5904L17.1798 8.25708C17.3936 6.32542 16.8394 4.75 13.459 4.75H5.5423C2.16189 4.75 1.60772 6.32542 1.82147 8.25708L2.41522 14.5904C2.58147 16.1421 3.15147 17.4167 6.33397 17.4167Z" stroke="white" stroke-miterlimit="10" stroke-linecap="round" stroke-linejoin="round"/>
<path d="M6.33398 4.75004V4.11671C6.33398 2.71546 6.33398 1.58337 8.86732 1.58337H10.134C12.6673 1.58337 12.6673 2.71546 12.6673 4.11671V4.75004" stroke="white" stroke-miterlimit="10" stroke-linecap="round" stroke-linejoin="round"/>
<path d="M11.0827 10.2917V11.0833C11.0827 11.0913 11.0827 11.0913 11.0827 11.0992C11.0827 11.9621 11.0748 12.6667 9.49935 12.6667C7.93185 12.6667 7.91602 11.97 7.91602 11.1071V10.2917C7.91602 9.5 7.91602 9.5 8.70768 9.5H10.291C11.0827 9.5 11.0827 9.5 11.0827 10.2917Z" stroke="white" stroke-miterlimit="10" stroke-linecap="round" stroke-linejoin="round"/>
<path d="M17.1402 8.70837C15.3115 10.0384 13.2215 10.83 11.084 11.0992" stroke="white" stroke-miterlimit="10" stroke-linecap="round" stroke-linejoin="round"/>
<path d="M2.07422 8.92212C3.85547 10.1413 5.8663 10.8775 7.91672 11.1071" stroke="white" stroke-miterlimit="10" stroke-linecap="round" stroke-linejoin="round"/>
</svg>
