<svg width="30" height="30" viewBox="0 0 30 30" fill="none" xmlns="http://www.w3.org/2000/svg">
<path d="M22.5 23.575H21.55C20.55 23.575 19.6 23.9625 18.9 24.6625L16.7625 26.775C15.7875 27.7375 14.2 27.7375 13.225 26.775L11.0875 24.6625C10.3875 23.9625 9.425 23.575 8.4375 23.575H7.5C5.425 23.575 3.75 21.9125 3.75 19.8625V6.2125C3.75 4.1625 5.425 2.5 7.5 2.5H22.5C24.575 2.5 26.25 4.1625 26.25 6.2125V19.85C26.25 21.9 24.575 23.575 22.5 23.575Z" stroke="#1976D2" stroke-width="2" stroke-miterlimit="10" stroke-linecap="round" stroke-linejoin="round"/>
<path d="M15.0873 11.1875C15.0373 11.1875 14.9623 11.1875 14.8998 11.1875C13.5873 11.1375 12.5498 10.075 12.5498 8.75C12.5498 7.4 13.6373 6.3125 14.9873 6.3125C16.3373 6.3125 17.4248 7.4125 17.4248 8.75C17.4373 10.075 16.3998 11.15 15.0873 11.1875Z" stroke="#1976D2" stroke-width="2" stroke-linecap="round" stroke-linejoin="round"/>
<path d="M11.5623 14.9492C9.8998 16.0617 9.8998 17.8742 11.5623 18.9867C13.4498 20.2492 16.5498 20.2492 18.4373 18.9867C20.0998 17.8742 20.0998 16.0617 18.4373 14.9492C16.5498 13.6992 13.4623 13.6992 11.5623 14.9492Z" stroke="#1976D2" stroke-width="2" stroke-linecap="round" stroke-linejoin="round"/>
</svg>
