<svg width="19" height="19" viewBox="0 0 19 19" fill="none" xmlns="http://www.w3.org/2000/svg">
<path d="M6.33299 17.4167H12.6663C15.8488 17.4167 16.4188 16.1421 16.5851 14.5904L17.1788 8.25708C17.3926 6.32542 16.8384 4.75 13.458 4.75H5.54133C2.16091 4.75 1.60674 6.32542 1.82049 8.25708L2.41424 14.5904C2.58049 16.1421 3.15049 17.4167 6.33299 17.4167Z" stroke="white" stroke-miterlimit="10" stroke-linecap="round" stroke-linejoin="round"/>
<path d="M6.33301 4.75065V4.11732C6.33301 2.71607 6.33301 1.58398 8.86634 1.58398H10.133C12.6663 1.58398 12.6663 2.71607 12.6663 4.11732V4.75065" stroke="white" stroke-miterlimit="10" stroke-linecap="round" stroke-linejoin="round"/>
<path d="M11.0837 10.2917V11.0833C11.0837 11.0913 11.0837 11.0913 11.0837 11.0992C11.0837 11.9621 11.0757 12.6667 9.50033 12.6667C7.93283 12.6667 7.91699 11.97 7.91699 11.1071V10.2917C7.91699 9.5 7.91699 9.5 8.70866 9.5H10.292C11.0837 9.5 11.0837 9.5 11.0837 10.2917Z" stroke="white" stroke-miterlimit="10" stroke-linecap="round" stroke-linejoin="round"/>
<path d="M17.1393 8.70898C15.3105 10.039 13.2205 10.8307 11.083 11.0998" stroke="white" stroke-miterlimit="10" stroke-linecap="round" stroke-linejoin="round"/>
<path d="M2.07422 8.92188C3.85547 10.141 5.8663 10.8773 7.91672 11.1069" stroke="white" stroke-miterlimit="10" stroke-linecap="round" stroke-linejoin="round"/>
</svg>
