<svg width="30" height="30" viewBox="0 0 30 30" fill="none" xmlns="http://www.w3.org/2000/svg">
<path d="M21.2443 5H8.74434C3.95684 5 2.61934 6.15 2.50684 10.625C4.91934 10.625 6.86934 12.5875 6.86934 15C6.86934 17.4125 4.91934 19.3625 2.50684 19.375C2.61934 23.85 3.95684 25 8.74434 25H21.2443C26.2443 25 27.4943 23.75 27.4943 18.75V11.25C27.4943 6.25 26.2443 5 21.2443 5Z" stroke="#1976D2" stroke-width="2" stroke-linecap="round" stroke-linejoin="round"/>
<path d="M11.2422 5V9.375" stroke="#1976D2" stroke-width="2" stroke-linecap="round" stroke-linejoin="round"/>
<path d="M11.2422 20.625V25" stroke="#1976D2" stroke-width="2" stroke-linecap="round" stroke-linejoin="round"/>
<path d="M18.781 11.6617L19.556 13.2242C19.631 13.3742 19.781 13.4867 19.9435 13.5117L21.6685 13.7617C22.0935 13.8242 22.2685 14.3492 21.956 14.6492L20.706 15.8617C20.581 15.9742 20.531 16.1492 20.556 16.3242L20.856 18.0367C20.931 18.4617 20.481 18.7867 20.106 18.5867L18.5685 17.7742C18.4185 17.6992 18.231 17.6992 18.081 17.7742L16.5435 18.5867C16.156 18.7867 15.7185 18.4617 15.7935 18.0367L16.0935 16.3242C16.1185 16.1492 16.0685 15.9867 15.9435 15.8617L14.706 14.6492C14.3935 14.3492 14.5685 13.8242 14.9935 13.7617L16.7185 13.5117C16.8935 13.4867 17.031 13.3867 17.106 13.2242L17.8685 11.6617C18.0435 11.2742 18.5935 11.2742 18.781 11.6617Z" stroke="#1976D2" stroke-width="2" stroke-linecap="round" stroke-linejoin="round"/>
</svg>
