<svg width="24" height="24" viewBox="0 0 24 24" fill="none" xmlns="http://www.w3.org/2000/svg">
<path d="M5.86601 8.72125C7.42559 1.86542 17.5827 1.87333 19.1343 8.72917C20.0448 12.7508 17.5431 16.155 15.3502 18.2608C13.7589 19.7967 11.2414 19.7967 9.64226 18.2608C7.45726 16.155 4.95559 12.7429 5.86601 8.72125Z" stroke="white"/>
<path d="M12.4049 5.2927C12.4348 5.20057 12.5652 5.20057 12.5951 5.29271L13.7124 8.73131C13.7258 8.77251 13.7642 8.80041 13.8075 8.80041H17.423C17.5199 8.80041 17.5602 8.92437 17.4818 8.98131L14.5568 11.1065C14.5217 11.1319 14.5071 11.1771 14.5204 11.2183L15.6377 14.6569C15.6676 14.749 15.5622 14.8256 15.4838 14.7687L12.5588 12.6435C12.5237 12.6181 12.4763 12.6181 12.4412 12.6435L9.51617 14.7687C9.4378 14.8256 9.33235 14.749 9.36229 14.6569L10.4796 11.2183C10.4929 11.1771 10.4783 11.1319 10.4432 11.1065L7.51818 8.98131C7.43981 8.92437 7.48009 8.80041 7.57696 8.80041H11.1925C11.2358 8.80041 11.2742 8.77251 11.2876 8.73131L12.4049 5.2927Z" fill="#FFAE28"/>
</svg>
