<svg width="35" height="35" viewBox="0 0 35 35" fill="none" xmlns="http://www.w3.org/2000/svg">
<path d="M25.2146 6.03752L25.1125 11.5646C25.0979 12.3229 25.5793 13.3292 26.1918 13.7813L29.8084 16.5229C32.1271 18.2729 31.748 20.4167 28.9771 21.2917L24.2667 22.7646C23.4792 23.0125 22.648 23.8729 22.4438 24.675L21.3209 28.9625C20.4313 32.3458 18.2146 32.6812 16.3771 29.7062L13.8104 25.55C13.3438 24.7916 12.2354 24.2229 11.3604 24.2667L6.48966 24.5146C3.00425 24.6896 2.01256 22.6771 4.28756 20.0229L7.17504 16.6687C7.71462 16.0417 7.96253 14.875 7.71461 14.0875L6.24177 9.37707C5.38135 6.60624 6.92717 5.07501 9.68342 5.97917L13.9855 7.39376C14.7147 7.62709 15.8084 7.46666 16.4209 7.01458L20.9126 3.77708C23.3334 2.02708 25.2729 3.04794 25.2146 6.03752Z" stroke="white" stroke-width="1.5" stroke-linecap="round" stroke-linejoin="round"/>
</svg>
