<svg width="76" height="76" viewBox="0 0 76 76" fill="none" xmlns="http://www.w3.org/2000/svg">
<path d="M67.3037 37.9693C67.3037 37.2967 66.9731 36.7055 66.47 36.3346L66.4806 36.3163L59.3944 32.2253L63.4733 25.1603L63.4596 25.1519C63.5884 24.8608 63.6468 24.5433 63.6301 24.2254C63.6133 23.9074 63.5218 23.5979 63.3631 23.3219C63.2032 23.0461 62.9804 22.812 62.713 22.6385C62.4456 22.4649 62.1411 22.3569 61.8241 22.3232V22.3035H53.6404V14.1433H53.6237C53.5896 13.8268 53.4815 13.5227 53.308 13.2557C53.1345 12.9887 52.9005 12.7663 52.625 12.6066C52.3486 12.4474 52.0385 12.3558 51.7199 12.3393C51.4013 12.3227 51.0833 12.3818 50.7919 12.5116L50.782 12.4941L43.5765 16.6544L39.5865 9.74294L39.572 9.7513C39.3842 9.49422 39.1385 9.28498 38.8547 9.14053C38.571 8.99608 38.2572 8.92049 37.9388 8.91986C37.2662 8.91986 36.6742 9.25046 36.304 9.75358L36.2858 9.74294L32.2297 16.7684L25.2453 12.7358L25.2369 12.7503C24.9458 12.6214 24.6283 12.563 24.3104 12.5798C23.9924 12.5966 23.6829 12.688 23.4068 12.8468C23.1309 13.0066 22.8966 13.2292 22.7229 13.4967C22.5493 13.7641 22.4412 14.0687 22.4074 14.3858H22.3869V22.498H14.3218V22.514C14.0052 22.548 13.7011 22.6562 13.4341 22.8297C13.1672 23.0032 12.9448 23.2372 12.7851 23.5126C12.6263 23.7889 12.5348 24.0987 12.5182 24.417C12.5016 24.7352 12.5602 25.0529 12.6893 25.3442L12.6718 25.3549L16.6588 32.261L9.51937 36.3832L9.52773 36.3977C9.27064 36.5855 9.06141 36.8312 8.91696 37.115C8.77251 37.3987 8.69691 37.7125 8.69629 38.0309C8.69629 38.7035 9.02689 39.2955 9.53001 39.6657L9.51937 39.6839L16.6056 43.775L12.5267 50.8399L12.5404 50.8475C12.4115 51.1387 12.3531 51.4562 12.3699 51.7741C12.3867 52.0921 12.4781 52.4016 12.6369 52.6776C12.7968 52.9534 13.0195 53.1875 13.2869 53.361C13.5543 53.5345 13.8589 53.6425 14.1759 53.6763V53.6968H22.3588V61.8561H22.3755C22.4454 62.4763 22.7928 63.0569 23.3742 63.3929C23.6507 63.5519 23.9608 63.6434 24.2793 63.6599C24.5979 63.6764 24.9158 63.6175 25.2073 63.4879L25.2172 63.5053L32.4227 59.3451L36.4127 66.2565L36.4272 66.2482C36.615 66.5053 36.8607 66.7145 37.1445 66.8589C37.4282 67.0034 37.742 67.079 38.0604 67.0796C38.733 67.0796 39.325 66.749 39.6952 66.2467L39.7126 66.2565L43.7688 59.2311L50.7539 63.2637L50.7623 63.2492C51.0535 63.3781 51.3709 63.4365 51.6889 63.4197C52.0068 63.4029 52.3164 63.3115 52.5924 63.1527C52.8683 62.9929 53.1026 62.7702 53.2763 62.5028C53.4499 62.2354 53.558 61.9308 53.5918 61.6137H53.6123V53.5022H61.6782V53.4863C61.9947 53.4522 62.2989 53.344 62.5658 53.1705C62.8328 52.997 63.0552 52.7631 63.2149 52.4876C63.3737 52.2112 63.4651 51.9012 63.4817 51.5829C63.4983 51.2645 63.4397 50.9467 63.3106 50.6553L63.3281 50.6454L59.3412 43.7393L66.4806 39.617L66.4722 39.6026C66.7294 39.4148 66.9387 39.1691 67.0832 38.8853C67.2276 38.6016 67.3032 38.2878 67.3037 37.9693ZM33.223 46.6295L25.74 43.3235L29.0422 49.0425L27.1757 50.1202L22.1126 41.3521L24.0316 40.2433L31.2744 43.4064L28.0938 37.8979L29.9611 36.8202L35.0227 45.5883L33.223 46.6295ZM36.7585 44.5882L31.6962 35.8193L37.9016 32.2374L38.85 33.8805L34.5112 36.3847L35.5737 38.2255L39.8198 35.7745L40.7683 37.4161L36.5222 39.8686L37.6758 41.8666L42.0147 39.3624L42.9632 41.0055L36.7585 44.5882ZM51.1271 36.2928L46.1126 31.1597L48.0635 38.0605L46.0792 39.2066L38.5058 31.8886L40.5958 30.6817L45.7926 36.1294L43.8037 28.8296L45.2629 27.9875L50.5776 33.3675L48.4572 26.143L50.5472 24.9361L53.1122 35.1475L51.1271 36.2928Z" fill="#FF0000"/>
</svg>
