<svg width="45" height="45" viewBox="0 0 45 45" fill="none" xmlns="http://www.w3.org/2000/svg">
<circle cx="22.5" cy="22.5" r="22.5" fill="#E5E5E5" fill-opacity="0.54"/>
<path d="M23.0268 11.8799C18.6135 11.8799 15.0268 15.4665 15.0268 19.8799V23.7332C15.0268 24.5465 14.6801 25.7865 14.2668 26.4799L12.7335 29.0265C11.7868 30.5999 12.4401 32.3465 14.1735 32.9332C19.9201 34.8532 26.1201 34.8532 31.8668 32.9332C33.4801 32.3999 34.1868 30.4932 33.3068 29.0265L31.7735 26.4799C31.3735 25.7865 31.0268 24.5465 31.0268 23.7332V19.8799C31.0268 15.4799 27.4268 11.8799 23.0268 11.8799Z" stroke="#4073AF" stroke-width="1.5" stroke-miterlimit="10" stroke-linecap="round"/>
<path d="M25.4929 12.2669C25.0796 12.1469 24.6529 12.0536 24.2129 12.0002C22.9329 11.8402 21.7062 11.9336 20.5596 12.2669C20.9462 11.2802 21.9062 10.5869 23.0262 10.5869C24.1462 10.5869 25.1062 11.2802 25.4929 12.2669Z" stroke="#4073AF" stroke-width="1.5" stroke-miterlimit="10" stroke-linecap="round" stroke-linejoin="round"/>
<path d="M27.0264 33.4131C27.0264 35.6131 25.2264 37.4131 23.0264 37.4131C21.933 37.4131 20.9197 36.9598 20.1997 36.2398C19.4797 35.5198 19.0264 34.5064 19.0264 33.4131" stroke="#4073AF" stroke-width="1.5" stroke-miterlimit="10"/>
</svg>
