<svg width="20" height="21" viewBox="0 0 20 21" fill="none" xmlns="http://www.w3.org/2000/svg">
<path d="M10.8337 18.8334H4.16699C2.50033 18.8334 1.66699 18.0001 1.66699 16.3334V9.66675C1.66699 8.00008 2.50033 7.16675 4.16699 7.16675H8.33366V16.3334C8.33366 18.0001 9.16699 18.8334 10.8337 18.8334Z" stroke="white" stroke-width="1.5" stroke-miterlimit="10" stroke-linecap="round" stroke-linejoin="round"/>
<path d="M8.42531 3.83325C8.35865 4.08325 8.33366 4.35825 8.33366 4.66659V7.16659H4.16699V5.49992C4.16699 4.58325 4.91699 3.83325 5.83366 3.83325H8.42531Z" stroke="white" stroke-width="1.5" stroke-miterlimit="10" stroke-linecap="round" stroke-linejoin="round"/>
<path d="M11.667 7.16675V11.3334" stroke="white" stroke-width="1.5" stroke-miterlimit="10" stroke-linecap="round" stroke-linejoin="round"/>
<path d="M15 7.16675V11.3334" stroke="white" stroke-width="1.5" stroke-miterlimit="10" stroke-linecap="round" stroke-linejoin="round"/>
<path d="M14.167 14.6667H12.5003C12.042 14.6667 11.667 15.0417 11.667 15.5001V18.8334H15.0003V15.5001C15.0003 15.0417 14.6253 14.6667 14.167 14.6667Z" stroke="white" stroke-width="1.5" stroke-miterlimit="10" stroke-linecap="round" stroke-linejoin="round"/>
<path d="M5 11.3333V14.6666" stroke="white" stroke-width="1.5" stroke-miterlimit="10" stroke-linecap="round" stroke-linejoin="round"/>
<path d="M8.33301 16.3334V4.66675C8.33301 3.00008 9.16634 2.16675 10.833 2.16675H15.833C17.4997 2.16675 18.333 3.00008 18.333 4.66675V16.3334C18.333 18.0001 17.4997 18.8334 15.833 18.8334H10.833C9.16634 18.8334 8.33301 18.0001 8.33301 16.3334Z" stroke="white" stroke-width="1.5" stroke-miterlimit="10" stroke-linecap="round" stroke-linejoin="round"/>
</svg>
