<svg width="24" height="24" viewBox="0 0 24 24" fill="none" xmlns="http://www.w3.org/2000/svg">
<path d="M12 10.6875C11.4026 10.6874 10.8259 10.9068 10.3796 11.3039C9.93329 11.701 9.64836 12.2482 9.57895 12.8416C9.50954 13.4349 9.66048 14.0331 10.0031 14.5225C10.3457 15.0119 10.8562 15.3584 11.4375 15.4962V17.25C11.4375 17.3992 11.4968 17.5423 11.6023 17.6477C11.7077 17.7532 11.8508 17.8125 12 17.8125C12.1492 17.8125 12.2923 17.7532 12.3977 17.6477C12.5032 17.5423 12.5625 17.3992 12.5625 17.25V15.4962C13.1438 15.3584 13.6543 15.0119 13.9969 14.5225C14.3395 14.0331 14.4905 13.4349 14.4211 12.8416C14.3516 12.2482 14.0667 11.701 13.6204 11.3039C13.1741 10.9068 12.5974 10.6874 12 10.6875ZM12 14.4375C11.7404 14.4375 11.4867 14.3605 11.2708 14.2163C11.055 14.0721 10.8867 13.8671 10.7874 13.6273C10.6881 13.3874 10.6621 13.1235 10.7127 12.8689C10.7634 12.6143 10.8884 12.3805 11.0719 12.1969C11.2555 12.0134 11.4893 11.8884 11.7439 11.8377C11.9985 11.7871 12.2624 11.8131 12.5023 11.9124C12.7421 12.0117 12.9471 12.18 13.0913 12.3958C13.2355 12.6117 13.3125 12.8654 13.3125 13.125C13.3121 13.473 13.1737 13.8066 12.9276 14.0526C12.6816 14.2987 12.348 14.4371 12 14.4375ZM19.5 7.6875H15.9375V4.875C15.9375 4.35792 15.8357 3.8459 15.6378 3.36818C15.4399 2.89046 15.1499 2.4564 14.7842 2.09077C14.4186 1.72514 13.9845 1.4351 13.5068 1.23722C13.0291 1.03935 12.5171 0.9375 12 0.9375C11.4829 0.9375 10.9709 1.03935 10.4932 1.23722C10.0155 1.4351 9.5814 1.72514 9.21577 2.09077C8.85014 2.4564 8.5601 2.89046 8.36223 3.36818C8.16435 3.8459 8.0625 4.35792 8.0625 4.875V7.6875H4.5C4.15203 7.6879 3.81842 7.8263 3.57236 8.07236C3.32631 8.31842 3.1879 8.65203 3.1875 9V19.5C3.1879 19.848 3.32631 20.1816 3.57236 20.4276C3.81842 20.6737 4.15203 20.8121 4.5 20.8125H19.5C19.848 20.8121 20.1816 20.6737 20.4276 20.4276C20.6737 20.1816 20.8121 19.848 20.8125 19.5V9C20.8121 8.65203 20.6737 8.31842 20.4276 8.07236C20.1816 7.8263 19.848 7.6879 19.5 7.6875ZM9.1875 4.875C9.1875 4.50566 9.26025 4.13993 9.40159 3.7987C9.54293 3.45747 9.7501 3.14743 10.0113 2.88626C10.2724 2.6251 10.5825 2.41793 10.9237 2.27659C11.2649 2.13525 11.6307 2.0625 12 2.0625C12.3693 2.0625 12.7351 2.13525 13.0763 2.27659C13.4175 2.41793 13.7276 2.6251 13.9887 2.88626C14.2499 3.14743 14.4571 3.45747 14.5984 3.7987C14.7398 4.13993 14.8125 4.50566 14.8125 4.875V7.6875H9.1875V4.875ZM19.6875 19.5C19.6875 19.5497 19.6677 19.5974 19.6325 19.6325C19.5974 19.6677 19.5497 19.6875 19.5 19.6875H4.5C4.45029 19.6875 4.40262 19.6677 4.36747 19.6325C4.33232 19.5974 4.31255 19.5497 4.3125 19.5V9C4.31255 8.95029 4.33232 8.90262 4.36747 8.86747C4.40262 8.83232 4.45029 8.81255 4.5 8.8125H19.5C19.5497 8.81255 19.5974 8.83232 19.6325 8.86747C19.6677 8.90262 19.6875 8.95029 19.6875 9V19.5Z" fill="#2758DD" fill-opacity="0.7"/>
</svg>
