<svg width="20" height="19" viewBox="0 0 20 19" fill="none" xmlns="http://www.w3.org/2000/svg">
<path d="M18.3087 14.7751C18.3087 15.0751 18.242 15.3834 18.1003 15.6834C17.9587 15.9834 17.7753 16.2667 17.5337 16.5334C17.1253 16.9834 16.6753 17.3084 16.167 17.5167C15.667 17.7251 15.1253 17.8334 14.542 17.8334C13.692 17.8334 12.7837 17.6334 11.8253 17.2251C10.867 16.8167 9.90866 16.2667 8.95866 15.5751C8.00033 14.8751 7.09199 14.1001 6.22533 13.2417C5.36699 12.3751 4.59199 11.4667 3.90033 10.5167C3.21699 9.56675 2.66699 8.61675 2.26699 7.67508C1.86699 6.72508 1.66699 5.81675 1.66699 4.95008C1.66699 4.38341 1.76699 3.84175 1.96699 3.34175C2.16699 2.83341 2.48366 2.36675 2.92533 1.95008C3.45866 1.42508 4.04199 1.16675 4.65866 1.16675C4.89199 1.16675 5.12533 1.21675 5.33366 1.31675C5.55033 1.41675 5.74199 1.56675 5.89199 1.78341L7.82533 4.50842C7.97533 4.71675 8.08366 4.90841 8.15866 5.09175C8.23366 5.26675 8.27533 5.44175 8.27533 5.60008C8.27533 5.80008 8.21699 6.00008 8.10033 6.19175C7.99199 6.38341 7.83366 6.58341 7.63366 6.78341L7.00033 7.44175C6.90866 7.53341 6.86699 7.64175 6.86699 7.77508C6.86699 7.84175 6.87533 7.90008 6.89199 7.96675C6.91699 8.03341 6.94199 8.08341 6.95866 8.13341C7.10866 8.40841 7.36699 8.76675 7.73366 9.20008C8.10866 9.63342 8.50866 10.0751 8.94199 10.5167C9.39199 10.9584 9.82533 11.3667 10.267 11.7417C10.7003 12.1084 11.0587 12.3584 11.342 12.5084C11.3837 12.5251 11.4337 12.5501 11.492 12.5751C11.5587 12.6001 11.6253 12.6084 11.7003 12.6084C11.842 12.6084 11.9503 12.5584 12.042 12.4667L12.6753 11.8417C12.8837 11.6334 13.0837 11.4751 13.2753 11.3751C13.467 11.2584 13.6587 11.2001 13.867 11.2001C14.0253 11.2001 14.192 11.2334 14.3753 11.3084C14.5587 11.3834 14.7503 11.4917 14.9587 11.6334L17.717 13.5917C17.9337 13.7417 18.0837 13.9167 18.1753 14.1251C18.2587 14.3334 18.3087 14.5417 18.3087 14.7751Z" stroke="white" stroke-width="1.5" stroke-miterlimit="10"/>
</svg>
