<svg width="30" height="30" viewBox="0 0 30 30" fill="none" xmlns="http://www.w3.org/2000/svg">
<path d="M23.2875 8.93816C23.3375 9.70066 23.275 10.5632 23.125 11.5257L22.2125 17.3882C21.4375 22.2757 19.175 23.9257 14.2875 23.1632L8.42499 22.2382C6.73749 21.9757 5.43749 21.5257 4.48749 20.8507C2.67499 19.5882 2.14999 17.5132 2.64999 14.3132L3.57499 8.45066C4.34999 3.56316 6.61249 1.91316 11.5 2.67566L17.3625 3.60066C21.2875 4.21316 23.125 5.81316 23.2875 8.93816Z" stroke="#1976D2" stroke-width="2" stroke-linecap="round" stroke-linejoin="round"/>
<path d="M25.6248 16.8375L23.7498 22.475C22.1873 27.175 19.6873 28.425 14.9873 26.8625L9.3498 24.9875C6.5123 24.05 4.9373 22.75 4.4873 20.85C5.4373 21.525 6.7373 21.975 8.4248 22.2375L14.2873 23.1625C19.1748 23.925 21.4373 22.275 22.2123 17.3875L23.1248 11.525C23.2748 10.5625 23.3373 9.7 23.2873 8.9375C26.2748 10.525 26.9248 12.925 25.6248 16.8375Z" stroke="#1976D2" stroke-width="2" stroke-linecap="round" stroke-linejoin="round"/>
<path d="M10.3 11.225C11.5012 11.225 12.475 10.2512 12.475 9.05C12.475 7.84878 11.5012 6.875 10.3 6.875C9.09878 6.875 8.125 7.84878 8.125 9.05C8.125 10.2512 9.09878 11.225 10.3 11.225Z" stroke="#1976D2" stroke-width="2" stroke-linecap="round" stroke-linejoin="round"/>
</svg>
