<?xml version="1.0" standalone="no"?>
<!DOCTYPE svg PUBLIC "-//W3C//DTD SVG 20010904//EN"
 "http://www.w3.org/TR/2001/REC-SVG-20010904/DTD/svg10.dtd">
<svg version="1.0" xmlns="http://www.w3.org/2000/svg"
 width="1001.000000pt" height="1280.000000pt" viewBox="0 0 1001.000000 1280.000000"
 preserveAspectRatio="xMidYMid meet">
<metadata>
Created by potrace 1.15, written by Peter Selinger 2001-2017
</metadata>
<g transform="translate(0.000000,1280.000000) scale(0.100000,-0.100000)"
fill="#ffffff" stroke="none">
<path d="M2070 12791 c-41 -13 -84 -38 -106 -63 -44 -48 -31 -5 -294 -988 -22
-80 -46 -170 -54 -200 -8 -30 -105 -395 -216 -810 -111 -415 -215 -802 -230
-860 -15 -58 -40 -148 -54 -200 -469 -1753 -477 -1785 -472 -1836 2 -28 13
-69 25 -91 22 -44 79 -99 120 -115 35 -14 72 -24 986 -268 347 -93 666 -178
710 -190 44 -12 265 -71 490 -131 226 -61 475 -128 555 -149 80 -21 170 -45
200 -53 48 -13 878 -236 1015 -272 28 -8 118 -32 200 -54 83 -22 253 -67 380
-101 188 -51 240 -61 286 -58 72 5 144 47 177 103 30 52 25 129 -12 204 -15
28 -247 432 -515 896 l-489 845 77 44 c798 460 1733 610 2497 401 1132 -311
1879 -1375 2133 -3040 48 -315 73 -566 91 -905 10 -181 13 -199 38 -250 73
-147 280 -155 367 -15 l30 48 0 1561 c0 1667 0 1661 -51 2046 -115 858 -413
1581 -892 2159 -128 154 -382 395 -549 520 -577 433 -1253 661 -1958 661 -796
0 -1738 -193 -2959 -605 -154 -52 -281 -93 -282 -92 -1 1 -230 398 -509 882
-283 491 -523 897 -543 919 -57 60 -120 79 -192 57z"/>
<path d="M166 8259 c-60 -14 -103 -46 -134 -97 l-27 -47 0 -1560 c0 -1666 0
-1660 51 -2045 115 -858 413 -1581 892 -2159 128 -154 382 -395 549 -520 487
-365 1024 -577 1638 -646 281 -32 742 -11 1190 55 621 90 1248 251 2089 535
154 52 281 93 282 92 1 -1 230 -398 509 -882 336 -584 521 -894 548 -922 22
-24 56 -48 75 -54 65 -21 169 9 218 63 44 48 31 5 294 988 22 80 46 170 54
200 8 30 105 395 216 810 111 415 215 802 230 860 15 58 40 148 54 200 469
1753 477 1785 472 1836 -2 28 -13 69 -25 91 -22 44 -79 99 -120 115 -35 14
-72 24 -986 268 -346 93 -666 178 -710 190 -44 12 -264 71 -490 131 -225 61
-475 128 -555 149 -80 21 -170 45 -200 53 -48 13 -878 236 -1015 272 -27 8
-117 32 -200 54 -82 22 -253 67 -380 101 -188 51 -240 61 -286 58 -72 -5 -144
-47 -177 -103 -30 -52 -25 -129 12 -204 15 -28 247 -432 515 -896 l489 -845
-77 -44 c-798 -460 -1733 -610 -2497 -401 -1132 311 -1879 1375 -2133 3040
-48 315 -73 566 -91 905 -10 181 -13 199 -38 250 -44 88 -140 132 -236 109z"/>
</g>
</svg>
