<svg width="20" height="18" viewBox="0 0 20 18" fill="none" xmlns="http://www.w3.org/2000/svg">
<path d="M18.75 7.7501H3.925L8.4625 2.3001C8.67467 2.04483 8.77675 1.71573 8.74628 1.3852C8.7158 1.05466 8.55527 0.749774 8.3 0.5376C8.04473 0.325427 7.71563 0.22335 7.3851 0.253825C7.05456 0.284299 6.74967 0.44483 6.5375 0.700101L0.2875 8.2001C0.245451 8.25976 0.207849 8.32242 0.175 8.3876C0.175 8.4501 0.175 8.4876 0.0875002 8.5501C0.0308421 8.69342 0.0011764 8.84599 0 9.0001C0.0011764 9.15421 0.0308421 9.30678 0.0875002 9.4501C0.0875002 9.5126 0.0874998 9.5501 0.175 9.6126C0.207849 9.67778 0.245451 9.74045 0.2875 9.8001L6.5375 17.3001C6.65503 17.4412 6.8022 17.5547 6.96856 17.6325C7.13491 17.7102 7.31636 17.7504 7.5 17.7501C7.79207 17.7507 8.07511 17.649 8.3 17.4626C8.42657 17.3577 8.5312 17.2288 8.60789 17.0834C8.68458 16.9379 8.73183 16.7788 8.74692 16.6151C8.76202 16.4513 8.74466 16.2863 8.69586 16.1292C8.64705 15.9722 8.56775 15.8264 8.4625 15.7001L3.925 10.2501H18.75C19.0815 10.2501 19.3995 10.1184 19.6339 9.88398C19.8683 9.64956 20 9.33162 20 9.0001C20 8.66858 19.8683 8.35064 19.6339 8.11622C19.3995 7.8818 19.0815 7.7501 18.75 7.7501Z" fill="#1976D2"/>
</svg>
