<svg width="19" height="19" viewBox="0 0 19 19" fill="none" xmlns="http://www.w3.org/2000/svg">
<path d="M6.86523 11.3445C6.86523 12.3657 7.64898 13.189 8.62273 13.189H10.6098C11.4569 13.189 12.1457 12.4686 12.1457 11.582C12.1457 10.6161 11.7261 10.2757 11.1007 10.054L7.91023 8.94571C7.28482 8.72404 6.86523 8.38363 6.86523 7.41779C6.86523 6.53113 7.55398 5.81071 8.40107 5.81071H10.3882C11.3619 5.81071 12.1457 6.63404 12.1457 7.65529" stroke="white" stroke-linecap="round" stroke-linejoin="round"/>
<path d="M9.5 4.75V14.25" stroke="white" stroke-linecap="round" stroke-linejoin="round"/>
<path d="M9.50016 17.4167C13.8724 17.4167 17.4168 13.8723 17.4168 9.5C17.4168 5.12775 13.8724 1.58333 9.50016 1.58333C5.12791 1.58333 1.5835 5.12775 1.5835 9.5C1.5835 13.8723 5.12791 17.4167 9.50016 17.4167Z" stroke="white" stroke-linecap="round" stroke-linejoin="round"/>
</svg>
