<svg width="44" height="44" viewBox="0 0 44 44" fill="none" xmlns="http://www.w3.org/2000/svg">
<circle cx="22" cy="22" r="22" fill="#E4E4E4"/>
<path d="M25.171 22.6075C26.0098 21.9475 26.622 21.0426 26.9226 20.0185C27.2231 18.9944 27.1969 17.9021 26.8477 16.8936C26.4986 15.8851 25.8437 15.0105 24.9743 14.3914C24.1049 13.7724 23.0642 13.4398 21.9969 13.4398C20.9297 13.4398 19.8889 13.7724 19.0195 14.3914C18.1501 15.0105 17.4953 15.8851 17.1461 16.8936C16.7969 17.9021 16.7708 18.9944 17.0713 20.0185C17.3718 21.0426 17.984 21.9475 18.8228 22.6075C17.3855 23.1833 16.1315 24.1383 15.1943 25.3708C14.2571 26.6033 13.672 28.067 13.5013 29.6059C13.4889 29.7183 13.4988 29.8319 13.5304 29.9405C13.5619 30.049 13.6146 30.1503 13.6853 30.2384C13.8281 30.4165 14.0358 30.5306 14.2627 30.5556C14.4896 30.5805 14.7171 30.5143 14.8952 30.3715C15.0733 30.2287 15.1874 30.021 15.2124 29.7941C15.4002 28.1217 16.1977 26.5771 17.4524 25.4554C18.7071 24.3338 20.3311 23.7137 22.014 23.7137C23.697 23.7137 25.321 24.3338 26.5757 25.4554C27.8304 26.5771 28.6278 28.1217 28.8157 29.7941C28.839 30.0044 28.9393 30.1985 29.0973 30.3391C29.2553 30.4797 29.4598 30.5569 29.6713 30.5556H29.7654C29.9896 30.5298 30.1946 30.4164 30.3356 30.2401C30.4767 30.0638 30.5423 29.8389 30.5183 29.6145C30.3467 28.0712 29.7584 26.6038 28.8164 25.3694C27.8744 24.135 26.6143 23.1802 25.171 22.6075ZM21.9969 22C21.3201 22 20.6584 21.7993 20.0956 21.4233C19.5329 21.0472 19.0942 20.5128 18.8352 19.8874C18.5762 19.2621 18.5084 18.574 18.6405 17.9102C18.7725 17.2463 19.0984 16.6365 19.577 16.1579C20.0557 15.6793 20.6654 15.3534 21.3293 15.2213C21.9931 15.0893 22.6812 15.1571 23.3066 15.4161C23.9319 15.6751 24.4664 16.1137 24.8424 16.6765C25.2184 17.2393 25.4191 17.9009 25.4191 18.5778C25.4191 19.4854 25.0586 20.3559 24.4168 20.9977C23.775 21.6395 22.9046 22 21.9969 22Z" fill="#2767A5"/>
</svg>
