<svg width="28" height="28" viewBox="0 0 28 28" fill="none" xmlns="http://www.w3.org/2000/svg">
<circle cx="14" cy="14" r="14" fill="#EFEFEF"/>
<g clip-path="url(#clip0_213_51554)">
<path d="M21.6988 18.9012C21.6988 19.2725 21.5513 19.6286 21.2888 19.8911C21.0262 20.1537 20.6701 20.3012 20.2988 20.3012H7.69883C7.32752 20.3012 6.97143 20.1537 6.70888 19.8911C6.44633 19.6286 6.29883 19.2725 6.29883 18.9012V11.2012C6.29883 10.8299 6.44633 10.4738 6.70888 10.2112C6.97143 9.94867 7.32752 9.80117 7.69883 9.80117H10.4988L11.8988 7.70117H16.0988L17.4988 9.80117H20.2988C20.6701 9.80117 21.0262 9.94867 21.2888 10.2112C21.5513 10.4738 21.6988 10.8299 21.6988 11.2012V18.9012Z" stroke="#1976D2" stroke-linecap="round" stroke-linejoin="round"/>
<path d="M13.9992 17.5023C15.5456 17.5023 16.7992 16.2487 16.7992 14.7023C16.7992 13.1559 15.5456 11.9023 13.9992 11.9023C12.4528 11.9023 11.1992 13.1559 11.1992 14.7023C11.1992 16.2487 12.4528 17.5023 13.9992 17.5023Z" stroke="#1976D2" stroke-linecap="round" stroke-linejoin="round"/>
</g>
<defs>
<clipPath id="clip0_213_51554">
<rect width="16.8" height="16.8" fill="white" transform="translate(5.59961 5.60156)"/>
</clipPath>
</defs>
</svg>
