<svg width="39" height="39" viewBox="0 0 39 39" fill="none" xmlns="http://www.w3.org/2000/svg">
<rect opacity="0.25" x="0.5" y="0.5" width="38" height="38" rx="19" stroke="white"/>
<path d="M28.2498 18.2826C28.2869 17.2091 28.0521 16.1436 27.5673 15.1851C27.2383 14.7918 26.7818 14.5264 26.2773 14.4351C24.1904 14.2458 22.0949 14.1681 19.9998 14.2026C17.9123 14.1666 15.8243 14.2417 13.7448 14.4276C13.3336 14.5024 12.9532 14.6952 12.6498 14.9826C11.9748 15.6051 11.8998 16.6701 11.8248 17.5701C11.716 19.1883 11.716 20.8119 11.8248 22.4301C11.8465 22.9367 11.9219 23.4395 12.0498 23.9301C12.1402 24.3089 12.3232 24.6594 12.5823 24.9501C12.8877 25.2527 13.2771 25.4565 13.6998 25.5351C15.3167 25.7347 16.9459 25.8174 18.5748 25.7826C21.1998 25.8201 23.5023 25.7826 26.2248 25.5726C26.6579 25.4988 27.0582 25.2948 27.3723 24.9876C27.5822 24.7775 27.7391 24.5204 27.8298 24.2376C28.098 23.4146 28.2297 22.5532 28.2198 21.6876C28.2498 21.2676 28.2498 18.7326 28.2498 18.2826ZM18.3048 22.1376V17.4951L22.7448 19.8276C21.4998 20.5176 19.8573 21.2976 18.3048 22.1376Z" fill="white"/>
</svg>
