<svg width="24" height="24" viewBox="0 0 24 24" fill="none" xmlns="http://www.w3.org/2000/svg">
<path d="M6.7002 9.26L12.0002 12.33L17.2602 9.28" stroke="#0D71BA" stroke-width="1.5" stroke-linecap="round" stroke-linejoin="round"/>
<path d="M12 17.77V12.32" stroke="#0D71BA" stroke-width="1.5" stroke-linecap="round" stroke-linejoin="round"/>
<path d="M10.7603 6.29L7.56024 8.07C6.84024 8.47 6.24023 9.48 6.24023 10.31V13.7C6.24023 14.53 6.83024 15.54 7.56024 15.94L10.7603 17.72C11.4403 18.1 12.5602 18.1 13.2502 17.72L16.4503 15.94C17.1703 15.54 17.7702 14.53 17.7702 13.7V10.3C17.7702 9.47 17.1803 8.46 16.4503 8.06L13.2502 6.28C12.5602 5.9 11.4403 5.9 10.7603 6.29Z" stroke="#0D71BA" stroke-width="1.5" stroke-linecap="round" stroke-linejoin="round"/>
<path d="M22 15C22 18.87 18.87 22 15 22L16.05 20.25" stroke="#0D71BA" stroke-width="1.5" stroke-linecap="round" stroke-linejoin="round"/>
<path d="M2 9C2 5.13 5.13 2 9 2L7.95001 3.75" stroke="#0D71BA" stroke-width="1.5" stroke-linecap="round" stroke-linejoin="round"/>
</svg>
