<svg width="18" height="18" viewBox="0 0 18 18" fill="none" xmlns="http://www.w3.org/2000/svg">
<path d="M12.492 0.666672H5.50866C2.47533 0.666672 0.666992 2.47501 0.666992 5.50834V12.4833C0.666992 15.525 2.47533 17.3333 5.50866 17.3333H12.4837C15.517 17.3333 17.3253 15.525 17.3253 12.4917V5.50834C17.3337 2.47501 15.5253 0.666672 12.492 0.666672ZM12.3337 9.62501H9.62533V12.3333C9.62533 12.675 9.34199 12.9583 9.00033 12.9583C8.65866 12.9583 8.37533 12.675 8.37533 12.3333V9.62501H5.66699C5.32533 9.62501 5.04199 9.34167 5.04199 9.00001C5.04199 8.65834 5.32533 8.37501 5.66699 8.37501H8.37533V5.66667C8.37533 5.32501 8.65866 5.04167 9.00033 5.04167C9.34199 5.04167 9.62533 5.32501 9.62533 5.66667V8.37501H12.3337C12.6753 8.37501 12.9587 8.65834 12.9587 9.00001C12.9587 9.34167 12.6753 9.62501 12.3337 9.62501Z" fill="#0D71BA"/>
</svg>
