<svg width="19" height="19" viewBox="0 0 19 19" fill="none" xmlns="http://www.w3.org/2000/svg">
<g clip-path="url(#clip0_93_10084)">
<path d="M5.75 18.5005C6.57842 18.5005 7.24999 17.8289 7.24999 17.0005C7.24999 16.1721 6.57842 15.5005 5.75 15.5005C4.92157 15.5005 4.25 16.1721 4.25 17.0005C4.25 17.8289 4.92157 18.5005 5.75 18.5005Z" fill="#0D71BA"/>
<path d="M13.25 18.5005C14.0784 18.5005 14.75 17.8289 14.75 17.0005C14.75 16.1721 14.0784 15.5005 13.25 15.5005C12.4216 15.5005 11.75 16.1721 11.75 17.0005C11.75 17.8289 12.4216 18.5005 13.25 18.5005Z" fill="#0D71BA"/>
<path d="M17.75 2.75H16.25V1.25C16.25 1.05109 16.171 0.860322 16.0303 0.71967C15.8897 0.579018 15.6989 0.5 15.5 0.5C15.3011 0.5 15.1103 0.579018 14.9697 0.71967C14.829 0.860322 14.75 1.05109 14.75 1.25V2.75H13.25C13.0511 2.75 12.8603 2.82902 12.7197 2.96967C12.579 3.11032 12.5 3.30109 12.5 3.5C12.5 3.69891 12.579 3.88968 12.7197 4.03033C12.8603 4.17098 13.0511 4.25 13.25 4.25H14.75V5.75C14.75 5.94891 14.829 6.13968 14.9697 6.28033C15.1103 6.42098 15.3011 6.5 15.5 6.5C15.6989 6.5 15.8897 6.42098 16.0303 6.28033C16.171 6.13968 16.25 5.94891 16.25 5.75V4.25H17.75C17.9489 4.25 18.1397 4.17098 18.2803 4.03033C18.421 3.88968 18.5 3.69891 18.5 3.5C18.5 3.30109 18.421 3.11032 18.2803 2.96967C18.1397 2.82902 17.9489 2.75 17.75 2.75V2.75Z" fill="#0D71BA"/>
<path d="M16.8282 7.7945C16.7313 7.77635 16.6317 7.77764 16.5352 7.79827C16.4387 7.81891 16.3473 7.85849 16.2662 7.91472C16.1852 7.97095 16.1161 8.0427 16.0629 8.12584C16.0098 8.20897 15.9737 8.30181 15.9567 8.399C15.8632 8.91812 15.5903 9.38787 15.1856 9.7262C14.7809 10.0645 14.2702 10.2499 13.7427 10.25H4.5635L3.8585 4.25H10.25C10.4489 4.25 10.6397 4.17098 10.7803 4.03033C10.921 3.88968 11 3.69891 11 3.5C11 3.30109 10.921 3.11032 10.7803 2.96967C10.6397 2.82902 10.4489 2.75 10.25 2.75H3.6815L3.65 2.486C3.58537 1.93895 3.32229 1.43462 2.91064 1.06858C2.49899 0.702541 1.96736 0.500235 1.4165 0.5L1.25 0.5C1.05109 0.5 0.860322 0.579018 0.71967 0.71967C0.579018 0.860322 0.5 1.05109 0.5 1.25C0.5 1.44891 0.579018 1.63968 0.71967 1.78033C0.860322 1.92098 1.05109 2 1.25 2H1.4165C1.6002 2.00002 1.7775 2.06747 1.91478 2.18954C2.05206 2.31161 2.13976 2.47981 2.16125 2.66225L3.19325 11.4373C3.30039 12.3498 3.73886 13.1913 4.42543 13.802C5.112 14.4127 5.99889 14.75 6.91775 14.75H14.75C14.9489 14.75 15.1397 14.671 15.2803 14.5303C15.421 14.3897 15.5 14.1989 15.5 14C15.5 13.8011 15.421 13.6103 15.2803 13.4697C15.1397 13.329 14.9489 13.25 14.75 13.25H6.91775C6.45239 13.2501 5.99845 13.1059 5.61846 12.8372C5.23847 12.5686 4.95112 12.1887 4.796 11.75H13.7427C14.6219 11.7501 15.4731 11.4413 16.1477 10.8776C16.8223 10.3139 17.2774 9.53114 17.4335 8.666C17.451 8.56903 17.4493 8.46956 17.4283 8.37327C17.4074 8.27699 17.3677 8.18577 17.3115 8.10483C17.2553 8.0239 17.1836 7.95483 17.1007 7.90158C17.0178 7.84834 16.9252 7.81195 16.8282 7.7945Z" fill="#0D71BA"/>
</g>
<defs>
<clipPath id="clip0_93_10084">
<rect width="18" height="18" fill="white" transform="translate(0.5 0.5)"/>
</clipPath>
</defs>
</svg>
