<svg width="20" height="20" viewBox="0 0 20 20" fill="none" xmlns="http://www.w3.org/2000/svg">
<path d="M5.63315 18.3334H14.3665C16.6665 18.3334 17.5831 16.9251 17.6915 15.2084L18.1248 8.32508C18.2415 6.52508 16.8081 5.00008 14.9998 5.00008C14.4915 5.00008 14.0248 4.70841 13.7915 4.25841L13.1915 3.05008C12.8081 2.29175 11.8081 1.66675 10.9581 1.66675H9.04981C8.19148 1.66675 7.19148 2.29175 6.80815 3.05008L6.20815 4.25841C5.97481 4.70841 5.50815 5.00008 4.99981 5.00008C3.19148 5.00008 1.75815 6.52508 1.87481 8.32508L2.30815 15.2084C2.40815 16.9251 3.33315 18.3334 5.63315 18.3334Z" stroke="#333333" stroke-linecap="round" stroke-linejoin="round"/>
<path d="M8.75 6.66675H11.25" stroke="#333333" stroke-linecap="round" stroke-linejoin="round"/>
<path d="M10.0003 14.9999C11.492 14.9999 12.7087 13.7833 12.7087 12.2916C12.7087 10.7999 11.492 9.58325 10.0003 9.58325C8.50866 9.58325 7.29199 10.7999 7.29199 12.2916C7.29199 13.7833 8.50866 14.9999 10.0003 14.9999Z" stroke="#333333" stroke-linecap="round" stroke-linejoin="round"/>
</svg>
