<svg width="9" height="9" viewBox="0 0 9 9" fill="none" xmlns="http://www.w3.org/2000/svg">
<path d="M8.25 3.75H5.25V0.75C5.25 0.551088 5.17098 0.360322 5.03033 0.21967C4.88968 0.0790178 4.69891 0 4.5 0C4.30109 0 4.11032 0.0790178 3.96967 0.21967C3.82902 0.360322 3.75 0.551088 3.75 0.75V3.75H0.75C0.551088 3.75 0.360322 3.82902 0.21967 3.96967C0.0790178 4.11032 0 4.30109 0 4.5C0 4.69891 0.0790178 4.88968 0.21967 5.03033C0.360322 5.17098 0.551088 5.25 0.75 5.25H3.75V8.25C3.75 8.44891 3.82902 8.63968 3.96967 8.78033C4.11032 8.92098 4.30109 9 4.5 9C4.69891 9 4.88968 8.92098 5.03033 8.78033C5.17098 8.63968 5.25 8.44891 5.25 8.25V5.25H8.25C8.44891 5.25 8.63968 5.17098 8.78033 5.03033C8.92098 4.88968 9 4.69891 9 4.5C9 4.30109 8.92098 4.11032 8.78033 3.96967C8.63968 3.82902 8.44891 3.75 8.25 3.75Z" fill="white"/>
</svg>
