<svg width="17" height="17" viewBox="0 0 17 17" fill="none" xmlns="http://www.w3.org/2000/svg">
<path d="M9.29768 2.13246L10.6177 4.77246C10.7977 5.13996 11.2777 5.49246 11.6827 5.55996L14.0752 5.95746C15.6052 6.21246 15.9652 7.32246 14.8627 8.41746L13.0027 10.2775C12.6877 10.5925 12.5152 11.2 12.6127 11.635L13.1452 13.9375C13.5652 15.76 12.5977 16.465 10.9852 15.5125L8.74268 14.185C8.33768 13.945 7.67018 13.945 7.25768 14.185L5.01518 15.5125C3.41018 16.465 2.43518 15.7525 2.85518 13.9375L3.38768 11.635C3.48518 11.2 3.31268 10.5925 2.99768 10.2775L1.13768 8.41746C0.0426759 7.32246 0.395176 6.21246 1.92518 5.95746L4.31768 5.55996C4.71518 5.49246 5.19518 5.13996 5.37518 4.77246L6.69518 2.13246C7.41518 0.699958 8.58518 0.699958 9.29768 2.13246Z" stroke="#FFAE28" stroke-linecap="round" stroke-linejoin="round"/>
</svg>
